<?xml version="1.0" encoding="UTF-8"?>
<svg id="Layer_1" data-name="Layer 1" xmlns="http://www.w3.org/2000/svg" viewBox="0 0 800 800">
  <defs>
    <style>
      .cls-1 {
        fill: #bfa872;
      }

      .cls-2 {
        fill: #8b7444;
      }

      .cls-3 {
        fill: #d9c38c;
      }

      .cls-4 {
        fill: #231f20;
      }

      .cls-5 {
        fill: #37d660;
      }

      .cls-6 {
        fill: #a58e5b;
      }
    </style>
  </defs>
  <path id="SVGCleanerId_0" data-name="SVGCleanerId 0" class="cls-5" d="M400,0C180.01,0,0,180,0,400s180.01,400,400,400,400-180.01,400-400S622.01,0,400,0ZM583.99,577.99c-7.96,12.01-21.97,16.01-33.99,8-94-58-212.01-69.99-351.97-37.97-14.04,3.97-26.01-6.03-30.01-18.01-4.01-14,6-26.01,18-30,151.99-34,284-20,388,44,13.97,6,16,22,9.97,33.99h0ZM632,468c-9.99,14-28.01,19.99-42,9.99-108-65.99-272-86-398.01-45.99-15.97,4-34-4.01-38-20-4-16,4.01-34.01,20.01-38.01,146-43.99,326-22.01,450,54,12,6,18,26.01,8,40.01ZM687.99,345.99c-9.97,13.99-34,20.01-51.99,9.97-128-75.97-341.99-83.97-463.99-45.99-20.03,6.03-40.01-5.99-45.99-23.99-6.03-19.99,5.99-40,23.97-45.99,142-41.99,376.03-34.03,524,54.01,18,9.99,24.03,33.97,13.99,51.97v.02Z"/>
  <g id="Layer_2" data-name="Layer 2">
    <ellipse class="cls-4" cx="385.98" cy="398.23" rx="346.6" ry="240.89"/>
  </g>
  <path id="SVGCleanerId_0-2" data-name="SVGCleanerId 0-2" class="cls-1" d="M400,0C180.01,0,0,180,0,400s180.01,400,400,400,400-180.01,400-400S622.01,0,400,0ZM583.99,577.99c-7.96,12.01-21.97,16.01-33.99,8-94-58-212.01-69.99-351.97-37.97-14.04,3.97-26.01-6.03-30.01-18.01-4.01-14,6-26.01,18-30,151.99-34,284-20,388,44,13.97,6,16,22,9.97,33.99h0ZM632,468c-9.99,14-28.01,19.99-42,9.99-108-65.99-272-86-398.01-45.99-15.97,4-34-4.01-38-20-4-16,4.01-34.01,20.01-38.01,146-43.99,326-22.01,450,54,12,6,18,26.01,8,40.01ZM687.99,345.99c-9.97,13.99-34,20.01-51.99,9.97-128-75.97-341.99-83.97-463.99-45.99-20.03,6.03-40.01-5.99-45.99-23.99-6.03-19.99,5.99-40,23.97-45.99,142-41.99,376.03-34.03,524,54.01,18,9.99,24.03,33.97,13.99,51.97v.02Z"/>
  <path class="cls-6" d="M354.32,314.99c-153.15,0-285.74,57.38-350.27,141.05,27.46,193.69,194.95,343.96,395.95,343.96,145.19,0,272.92-78.43,343.01-194.95,2.25-11.06,3.5-22.32,3.5-33.79,0-141.54-175.57-256.26-392.18-256.26h-.01ZM583.99,577.99c-7.96,12.01-21.97,16.01-33.99,8-94-58-212.01-69.99-351.97-37.97-14.04,3.97-26.01-6.03-30.01-18.01-4.01-14,6-26.01,18-30,151.99-34,284-20,388,44,13.97,6,16,22,9.97,33.99h0ZM632,468c-9.99,14-28.01,19.99-42,9.99-108-65.99-272-86-398.01-45.99-15.97,4-34-4.01-38-20-4-16,4.01-34.01,20.01-38.01,146-43.99,326-22.01,450,54,12,6,18,26.01,8,40.01Z"/>
  <path class="cls-3" d="M400,59.38c211.91,0,383.56,164,398.79,370.22.72-9.78,1.21-19.65,1.21-29.6,0-220-177.99-400-400-400S0,180,0,400c0,9.97.49,19.88,1.23,29.69C16.57,223.41,190.01,59.38,400,59.38Z"/>
  <path class="cls-2" d="M526.12,779.38c23.37-53.81,52.72-134.27,57.86-142.03,6.03-11.99,4.01-27.99-9.97-33.99-104.01-64-236.01-78-388-44-12,4-22,16-18,30,2.01,6.06,10.5,79.17,20.21,149.41,61.52,38.72,134.13,61.23,211.79,61.23,44.04,0,86.4-7.32,126.12-20.62h-.01Z"/>
</svg>