<?xml version="1.0" encoding="UTF-8"?>
<svg id="Layer_1" xmlns="http://www.w3.org/2000/svg" version="1.1" viewBox="0 0 16 16">
  <!-- Generator: Adobe Illustrator 29.7.1, SVG Export Plug-In . SVG Version: 2.1.1 Build 8)  -->
  <defs>
    <style>
      .st0 {
        fill: #fff;
        fill-rule: evenodd;
      }
    </style>
  </defs>
  <path class="st0" d="M10.44,9.78c1.35.07,2.76-.54,3.2-1.75.44-1.21.27-2.4-1.3-3.12-1.57-.72-2.3-1.57-3.57-2.08-.83-.34-1.75-.14-2.7.39-2.55,1.41-4.84,5.87-3.78,10,.02.06-.01.12-.06.14-.05.03-.12.02-.15-.03C.65,11.77-.15,9.65.02,7.37.36,2.98,4.2-.31,8.59.02s7.68,4.17,7.35,8.56c-.14,1.84-.9,3.49-2.06,4.76-.89.91-2.01,1.31-2.96,1.3-.68-.01-1.35-.28-1.81-.68-.66-.57-.93-1.22-1.02-1.94-.02-.18,0-.67.08-1.01.07-.25.25-.74.51-.96-.3-.13-.69-.41-.82-.55-.03-.03-.03-.09,0-.12.03-.04.07-.05.12-.04.26.09.58.18.91.23.44.07.99.17,1.54.19ZM7.69,3.39c.43-.03.81.33.87.82.09.65-.15,1.32-.94,1.34-.67.01-.87-.66-.83-1.07.04-.41.38-1.05.9-1.09Z"/>
</svg>