<?xml version="1.0" encoding="UTF-8"?>
<svg id="Layer_2" data-name="Layer 2" xmlns="http://www.w3.org/2000/svg" viewBox="0 0 781.15 623.34">
  <defs>
    <style>
      .cls-1 {
        fill: #fff;
      }
    </style>
  </defs>
  <path class="cls-1" d="M146.6,1.64C78.2,10.94,21.7,61.74,5.1,128.84-.1,149.94,0,146.74,0,280.54,0,385.04.2,406.34,1.4,410.54c4.8,16.9,17.5,29.7,33.7,33.9,5.3,1.4,14.1,1.6,58.8,1.6h52.6v3.2c.2,19.1,3.8,41.9,9.1,57.9,20.3,61.1,72.7,104.9,137.4,115,10.3,1.6,37.7,1.6,48,0,47-7.3,88.3-32.6,114.7-70.3,3.1-4.6,6.3-9.1,7.1-10.2,1.2-1.7,1.6-1.4,5.1,4,24.1,36.6,60.2,62.5,101.4,72.8,15.3,3.8,24.5,4.9,41.7,4.9s26.4-1.1,41.7-4.9c20.1-5,39.5-13.9,56.8-26.2,11.6-8.2,31.5-27.9,39.1-38.7,16.6-23.5,26.7-48.9,31.1-78,2-13.6,1.9-276.8-.1-284-5.5-19.4-20.8-33-40.1-35.5-4.1-.5-29.6-1-56.7-1h-49.1l-.6-2.8c-.3-1.5-.8-5-1.2-7.7-2.6-19.9-12.6-47.2-23.6-64.5C563.7,10.34,477.9-18.06,402,11.74c-31.9,12.6-59.5,34.6-78.6,62.8-3.4,4.9-6.2,9.1-6.3,9.2-.2.2-3.3-4.2-7-9.7-12.3-18.1-32-36.9-51.5-49C226.1,4.84,185.4-3.66,146.6,1.64ZM184,48.14c47.8,5.7,87.6,38.3,102.5,84,6.2,18.8,6,13.2,6,175.5s-.4,154.6,6.6,162.3c11.8,13.2,33.2,9.3,40.6-7.4,1-2.4,1.4-32.7,1.8-157.5l.6-154.5,2.3-9c9.6-36.3,32.6-65.3,64.8-81.4,30-15,64.6-16.9,96.7-5.5,34.8,12.4,63.7,42.5,74.9,78,5.9,18.6,5.7,12.6,5.7,173.6,0,103,.3,149.2,1.1,152.8,1.4,6.4,6.1,12.7,11.9,16,6.4,3.6,16.6,3.6,23,0,5.8-3.3,10.5-9.6,11.9-16,.8-3.5,1.1-43.6,1.1-130.5v-125.5h98v131.2c0,144.2.2,139.4-6.1,158.2-14.1,42.4-50.9,74.3-94.9,82.2-11,2-32,2-43,0-23.6-4.2-45.4-15.4-62.9-32.1-17.9-17-29.8-38-35.7-62.6-1.7-6.9-1.9-18.4-2.4-161.4-.5-153.4-.5-154-2.6-158.5-2.3-5-8-10.5-13-12.6-4.4-1.9-13.6-1.8-18.2.2-4.7,1.9-9.7,6.7-12.5,11.9l-2.2,4-.5,154.5-.5,154.5-2.7,10c-6.6,24.5-17.1,42.8-34,59-23.9,23.2-52.2,34.6-85.3,34.6-26.7,0-49.8-7.2-70.5-22-25.2-18-41-41.5-49.7-74.1-1.6-6-1.8-18.6-2.3-161-.4-138.7-.7-154.9-2.1-158-8.7-19.1-34.3-20-44.2-1.5l-2.2,4-.3,117.7-.2,117.8H47.5v-120.8c0-104.4.2-121.9,1.6-129.5,11.1-63.9,70.7-108.3,134.9-100.6Z"/>
</svg>