<?xml version="1.0" encoding="UTF-8"?>
<svg version="1.1" xmlns="http://www.w3.org/2000/svg" width="1000" height="1000">
<path d="M0 0 C0.99 0 1.98 0 3 0 C3 4.95 3 9.9 3 15 C4.98 15.66 6.96 16.32 9 17 C10 18 10 18 10.09765625 20.94140625 C10.08025391 22.73384766 10.08025391 22.73384766 10.0625 24.5625 C10.05347656 25.76003906 10.04445313 26.95757812 10.03515625 28.19140625 C10.01775391 29.58166016 10.01775391 29.58166016 10 31 C10.21914063 30.36191406 10.43828125 29.72382813 10.6640625 29.06640625 C10.98117187 28.24011719 11.29828125 27.41382813 11.625 26.5625 C12.07746094 25.32693359 12.07746094 25.32693359 12.5390625 24.06640625 C13.26222656 23.04353516 13.26222656 23.04353516 14 22 C15.98 21.67 17.96 21.34 20 21 C20.99 25.29 21.98 29.58 23 34 C23.598125 32.741875 24.19625 31.48375 24.8125 30.1875 C26.66798419 26.28458498 26.66798419 26.28458498 28.53125 24.6875 C30.82226485 22.05527018 31.03590867 19.1945693 31.6875 15.8125 C31.93886719 14.54019531 32.19023438 13.26789063 32.44921875 11.95703125 C32.63097656 10.98121094 32.81273437 10.00539063 33 9 C34.98 9.495 34.98 9.495 37 10 C38.98 18.91 38.98 18.91 41 28 C46.44860762 25.27569619 49.6232672 23.60436818 54 20 C54.66 20 55.32 20 56 20 C53.56696874 28.87842985 50.29163506 37.41405225 47 46 C47.33 46.33 47.66 46.66 48 47 C48.53109375 46.55527344 49.0621875 46.11054688 49.609375 45.65234375 C50.31578125 45.08644531 51.0221875 44.52054687 51.75 43.9375 C52.44609375 43.36902344 53.1421875 42.80054688 53.859375 42.21484375 C56 41 56 41 58.16015625 41.21484375 C60 42 60 42 61.6875 43.625 C65.38909678 45.82594944 68.90837665 44.84113511 73 44 C75.00382009 43.34490497 77.00458132 42.68025637 79 42 C81.875 41.875 81.875 41.875 84 42 C84 42.99 84 43.98 84 45 C82.42578125 46.54296875 82.42578125 46.54296875 80.3125 48.1875 C76.1376467 51.68495206 73.60057322 55.261589 71 60 C70.22963998 61.33360686 69.45883686 62.6669579 68.6875 64 C67.8521875 65.485 67.8521875 65.485 67 67 C67.68707031 66.57847656 68.37414062 66.15695312 69.08203125 65.72265625 C69.98308594 65.17480469 70.88414062 64.62695312 71.8125 64.0625 C73.15248047 63.24458984 73.15248047 63.24458984 74.51953125 62.41015625 C77.37730411 60.78550113 79.25541041 59.94551784 82.5625 60.1875 C87.48633099 59.9189274 91.52852984 57.97946505 96 56 C96 60.34072719 95.72377975 60.7978259 93.125 63.9375 C91.22463617 66.31516452 90.02826019 67.92051822 89 70.8125 C87.50056122 74.09252232 85.27522819 74.77178943 82 76 C81.34 75.67 80.68 75.34 80 75 C80 75.66 80 76.32 80 77 C81.134375 76.938125 82.26875 76.87625 83.4375 76.8125 C88.33847991 76.78619778 92.473967 78.23987606 97 80 C97 80.99 97 81.98 97 83 C94 85.1875 94 85.1875 91 87 C92.61068359 86.7834375 92.61068359 86.7834375 94.25390625 86.5625 C95.69007356 86.37476571 97.12627324 86.18727891 98.5625 86 C99.26697266 85.90460938 99.97144531 85.80921875 100.69726562 85.7109375 C105.17367855 85.13333583 109.48661238 84.90510617 114 85 C113.60196439 87.88575819 113.20990931 88.82189513 110.9375 90.75 C110.298125 91.1625 109.65875 91.575 109 92 C109.804375 91.835 110.60875 91.67 111.4375 91.5 C115.65887352 90.90752652 119.74664545 90.91493291 124 91 C123.7109375 92.875 123.7109375 92.875 123 95 C121.29334564 96.01135073 119.57988379 97.02150219 117.7890625 97.875 C115.50588674 99.16181863 115.50588674 99.16181863 113 103 C118.61 103.33 124.22 103.66 130 104 C130 104.99 130 105.98 130 107 C129.11957031 107.39832031 128.23914063 107.79664063 127.33203125 108.20703125 C126.17058594 108.73683594 125.00914062 109.26664062 123.8125 109.8125 C122.66394531 110.33457031 121.51539063 110.85664063 120.33203125 111.39453125 C116.65309608 113.10468382 116.65309608 113.10468382 112 116 C120.415 115.505 120.415 115.505 129 115 C129 115.99 129 116.98 129 118 C123.74285714 122 123.74285714 122 121 122 C120.75507812 122.59296875 120.51015625 123.1859375 120.2578125 123.796875 C118.09016153 127.59363011 114.5274267 129.49666493 111 132 C114.3 132 117.6 132 121 132 C119.77065985 135.68802044 118.06140622 136.72356973 115 139 C118.63 139 122.26 139 126 139 C126 139.66 126 140.32 126 141 C121.05 143.475 121.05 143.475 116 146 C125.57 146 135.14 146 145 146 C145.33 147.32 145.66 148.64 146 150 C141.545 151.485 141.545 151.485 137 153 C140.3 153.66 143.6 154.32 147 155 C146.67 155.99 146.34 156.98 146 158 C143.38280068 158.99660584 140.87549937 159.81700936 138.1875 160.5625 C131.90466082 162.29317431 131.90466082 162.29317431 126 165 C126.97582031 165.06058594 127.95164062 165.12117187 128.95703125 165.18359375 C130.22933594 165.26738281 131.50164062 165.35117187 132.8125 165.4375 C134.07707031 165.51871094 135.34164063 165.59992188 136.64453125 165.68359375 C140 166 140 166 143 167 C143 167.99 143 168.98 143 170 C138.90020116 173.26176381 134.19058916 174.10971801 129.1875 175.1875 C128.39923828 175.36474609 127.61097656 175.54199219 126.79882812 175.72460938 C124.86764503 176.15766255 122.93404777 176.57992568 121 177 C121.99 177.66 122.98 178.32 124 179 C123 182 123 182 121 183 C121.89203125 183.01417969 122.7840625 183.02835938 123.703125 183.04296875 C124.87359375 183.09066406 126.0440625 183.13835937 127.25 183.1875 C128.41015625 183.22230469 129.5703125 183.25710938 130.765625 183.29296875 C134.89757811 184.19620971 135.61047913 185.599528 138 189 C139.83479152 190.62975751 141.71169833 192.21317009 143.625 193.75 C144.58664062 194.52859375 145.54828125 195.3071875 146.5390625 196.109375 C148.83291539 197.99573559 148.83291539 197.99573559 151 199 C150.67 200.32 150.34 201.64 150 203 C149.37996094 202.65066406 148.75992187 202.30132813 148.12109375 201.94140625 C139.96514066 197.75064724 133.03138355 197.13406912 124 197 C126.42831137 199.90624241 128.44096885 200.60298178 132.10546875 201.38671875 C133.57983398 201.7105957 133.57983398 201.7105957 135.08398438 202.04101562 C136.10814453 202.25435547 137.13230469 202.46769531 138.1875 202.6875 C139.22326172 202.91244141 140.25902344 203.13738281 141.32617188 203.36914062 C143.88214599 203.92273871 146.43988957 204.46591729 149 205 C149 206.32 149 207.64 149 209 C148.37955811 209.08564209 147.75911621 209.17128418 147.11987305 209.25952148 C144.30866566 209.6492433 141.49808577 210.0433213 138.6875 210.4375 C137.22280273 210.63956055 137.22280273 210.63956055 135.72851562 210.84570312 C134.79072266 210.97783203 133.85292969 211.10996094 132.88671875 211.24609375 C131.59060669 211.42676392 131.59060669 211.42676392 130.26831055 211.61108398 C127.84441874 211.96777075 127.84441874 211.96777075 125 213 C125.73605469 213.15855469 126.47210937 213.31710937 127.23046875 213.48046875 C133.23431387 214.91599843 137.03589742 216.01655676 141 221 C141.804375 221.87785156 141.804375 221.87785156 142.625 222.7734375 C147 227.57378472 147 227.57378472 147 231 C144.02277453 230.29666462 141.14743457 229.41751463 138.25 228.4375 C137.45078125 228.16808594 136.6515625 227.89867187 135.828125 227.62109375 C134.92320312 227.31365234 134.92320312 227.31365234 134 227 C134.5081382 231.35767004 135.89737302 233.45104597 138.875 236.625 C139.57367187 237.38039063 140.27234375 238.13578125 140.9921875 238.9140625 C142.21811996 240.18769661 143.46832828 241.43918786 144.7578125 242.6484375 C146 244 146 244 146 246 C137.99134626 243.44615686 130.30509425 240.30013697 122.55664062 237.05273438 C121.61111328 236.66021484 120.66558594 236.26769531 119.69140625 235.86328125 C118.83748291 235.50532471 117.98355957 235.14736816 117.10375977 234.77856445 C115.06125524 233.88430772 115.06125524 233.88430772 113 234 C115.03791579 238.75513685 117.93622111 240.36421966 122.35546875 242.59375 C125 244 125 244 126.74609375 245.17724609 C131.86676884 248.6247406 136.63028883 250.27381113 142.625 251.625 C148.13863976 252.90804825 153.00857896 254.20545036 158 257 C158 257.33 158 257.66 158 258 C155.43788925 258.19569589 152.87567609 258.38180612 150.3125 258.5625 C149.59126953 258.61857422 148.87003906 258.67464844 148.12695312 258.73242188 C144.19511738 259.00172569 140.82704409 258.89122944 137 258 C135.39696373 257.93628632 133.79162328 257.91355786 132.1875 257.9375 C131.39730469 257.94652344 130.60710937 257.95554687 129.79296875 257.96484375 C129.20128906 257.97644531 128.60960937 257.98804688 128 258 C132.78706847 263.18599084 139.29976725 265.32494181 146 267 C146 268.32 146 269.64 146 271 C140.45288452 272.09779087 136.18408432 271.72972353 130.6875 270.5625 C124.33912908 269.31684183 118.49585947 268.69067336 112 269 C114.1862225 270.10675619 116.37390948 271.21044378 118.5625 272.3125 C119.47612305 272.7755957 119.47612305 272.7755957 120.40820312 273.24804688 C128.42646322 277.37192799 128.42646322 277.37192799 137 280 C137 280.99 137 281.98 137 283 C133.63448877 284.12183708 130.90939768 284.20800968 127.36328125 284.31640625 C126.06455078 284.35830078 124.76582031 284.40019531 123.42773438 284.44335938 C122.05599239 284.48316987 120.68424756 284.52288216 119.3125 284.5625 C117.92902355 284.60570835 116.54555973 284.64932339 115.16210938 284.69335938 C111.77484281 284.79958028 108.38750201 284.90162358 105 285 C106.65 285.66 108.3 286.32 110 287 C109.67 287.66 109.34 288.32 109 289 C106.4375 289.625 106.4375 289.625 104 290 C107.03891612 291.46411505 110.08159779 292.92023589 113.125 294.375 C113.9809375 294.7875 114.836875 295.2 115.71875 295.625 C120.08388179 297.70683209 124.35208176 299.61324407 129 301 C129 301.99 129 302.98 129 304 C127.81921875 304.03738281 126.6384375 304.07476563 125.421875 304.11328125 C123.86455212 304.17895149 122.30726186 304.24539847 120.75 304.3125 C119.97269531 304.33505859 119.19539063 304.35761719 118.39453125 304.38085938 C113.81690597 304.59604689 111.62628759 305.07352229 108 308 C105.421875 308.07421875 105.421875 308.07421875 102.75 307.6875 C101.41195312 307.50767578 101.41195312 307.50767578 100.046875 307.32421875 C99.37140625 307.21722656 98.6959375 307.11023438 98 307 C100.20716463 308.27289905 102.41567485 309.5433605 104.625 310.8125 C105.24246094 311.16892578 105.85992188 311.52535156 106.49609375 311.89257812 C110.27265506 314.05913172 114.08447772 316.0904299 118 318 C118 318.66 118 319.32 118 320 C114.04 320.33 110.08 320.66 106 321 C109.02539328 324.76329408 111.7295045 327.99031224 115.75 330.6875 C118.85936893 332.89993558 119.58113171 333.69626255 121 337 C120.27554687 336.855625 119.55109375 336.71125 118.8046875 336.5625 C117.83789062 336.376875 116.87109375 336.19125 115.875 336 C114.92367188 335.814375 113.97234375 335.62875 112.9921875 335.4375 C110.04746966 334.8935161 110.04746966 334.8935161 107.25 335.21875 C102.33455788 334.88790293 98.48393198 332.68603065 94.125 330.5 C92.80628906 329.85611328 92.80628906 329.85611328 91.4609375 329.19921875 C89.30191829 328.14317674 87.14880628 327.07663021 85 326 C85.39759521 326.50861572 85.79519043 327.01723145 86.20483398 327.54125977 C89.27303133 331.53519423 91.86833639 335.38415212 94.0625 339.9375 C97.52607795 346.62228362 101.90057969 352.34362541 106.64477539 358.17553711 C111.73877282 364.54172274 111.73877282 364.54172274 112 369 C111.34 369 110.68 369 110 369 C110 368.34 110 367.68 110 367 C109.071875 366.9071875 109.071875 366.9071875 108.125 366.8125 C107.42375 366.544375 106.7225 366.27625 106 366 C105.31867549 364.33927151 104.65257873 362.672233 104 361 C102.26857146 359.84077872 102.26857146 359.84077872 100 359 C98.74253125 358.3050119 97.49293817 357.59565304 96.25 356.875 C95.1775 356.25625 94.105 355.6375 93 355 C93 355.99 93 356.98 93 358 C90.79066161 357.0648143 88.58253569 356.12692414 86.375 355.1875 C85.75753906 354.92646484 85.14007812 354.66542969 84.50390625 354.39648438 C80.59525607 352.73016509 76.78135394 350.93721671 73 349 C73.56847656 349.44988281 74.13695312 349.89976562 74.72265625 350.36328125 C80.81433114 355.43798204 85.42309479 360.8806935 89 368 C89 368.99 89 369.98 89 371 C86.36 371.66 83.72 372.32 81 373 C81.33 375.31 81.66 377.62 82 380 C78.46627288 378.03681826 75.75520215 375.95929119 73 373 C72.4465236 375.07553648 72 376.84365964 72 379 C70.125 378.6875 70.125 378.6875 68 378 C67.34 377.01 66.68 376.02 66 375 C62.92201567 380.74557074 62.99638025 384.12016046 64.8125 390.375 C64.99103516 391.02210938 65.16957031 391.66921875 65.35351562 392.3359375 C66.1918001 395.33802486 67.10168526 398.29133356 68.12890625 401.234375 C69.18314695 404.58147102 69.1394985 407.51253762 69 411 C61.59288113 408.06297247 58.36430065 399.06827039 55.36669922 392.16455078 C54.78882827 390.80468207 54.2136314 389.44367392 53.64111328 388.08154297 C50.84716329 381.47493312 47.51966478 375.24767244 44 369 C47.03359326 379.49924477 50.12536726 389.89951831 54.17041016 400.06054688 C55.28208796 402.88484971 56 404.93025664 56 408 C51.74545047 407.52727227 49.80795427 405.03562624 47 402 C46.67 401.67 46.34 401.34 46 401 C46.53725895 404.37705625 47.11064623 407.696686 48 411 C47.236875 410.690625 46.47375 410.38125 45.6875 410.0625 C43.81210323 409.32106407 41.91315348 408.63771783 40 408 C40.33 410.64 40.66 413.28 41 416 C40.34 416 39.68 416 39 416 C38.67 418.97 38.34 421.94 38 425 C32.97529326 422.62722182 31.43969017 419.78902145 29 415 C28.01 415.66 27.02 416.32 26 417 C26.165 417.61875 26.33 418.2375 26.5 418.875 C27 421 27 421 27 423 C24.33333333 421.66666667 21.66666667 420.33333333 19 419 C17.72345061 422.82964817 18.57426869 424.25455641 19.9375 428 C22 433.70508475 22 433.70508475 22 437 C18.72001442 436.41275367 17.034091 435.39836756 14.625 433.125 C11.45108702 430.13159392 9.25096273 429.12548136 5 427 C5 432.28 5 437.56 5 443 C4.01 443.33 3.02 443.66 2 444 C1.67 445.65 1.34 447.3 1 449 C0.34 449 -0.32 449 -1 449 C-1.66 446.36 -2.32 443.72 -3 441 C-3.33 443.97 -3.66 446.94 -4 450 C-4.66 450 -5.32 450 -6 450 C-9.875 443.25 -9.875 443.25 -11 441 C-11.66 441 -12.32 441 -13 441 C-14.65 445.29 -16.3 449.58 -18 454 C-18.99 454 -19.98 454 -21 454 C-22.47222599 449.58332204 -22.35409333 445.04526404 -22.51757812 440.42382812 C-22.72586365 435.94765439 -23.34179923 432.2227056 -25 428 C-25.23187941 435.8710178 -24.84903173 443.27372156 -23.4375 451.02734375 C-22.3177665 458.63553299 -22.3177665 458.63553299 -24 462 C-24.99 462 -25.98 462 -27 462 C-30.63 454.08 -34.26 446.16 -38 438 C-38.33 438 -38.66 438 -39 438 C-39.66 441.96 -40.32 445.92 -41 450 C-46.625 446.625 -46.625 446.625 -49 443 C-48.85769192 444.41702513 -48.71099254 445.8336096 -48.5625 447.25 C-48.48128906 448.03890625 -48.40007812 448.8278125 -48.31640625 449.640625 C-48.06734292 451.93571667 -48.06734292 451.93571667 -47.46875 453.84375 C-46.78478275 456.98999934 -46.90774363 460.03631196 -46.9375 463.25 C-46.94652344 464.51328125 -46.95554687 465.7765625 -46.96484375 467.078125 C-46.98224609 468.52445313 -46.98224609 468.52445313 -47 470 C-48.921875 469.66015625 -48.921875 469.66015625 -51 469 C-52.25 466.4375 -52.25 466.4375 -53 464 C-53.99 464.33 -54.98 464.66 -56 465 C-56.721875 464.113125 -57.44375 463.22625 -58.1875 462.3125 C-59.92312154 460.21303712 -61.64032431 458.39016732 -63.625 456.5 C-66.14875001 453.84342104 -67.52629533 451.33522637 -69 448 C-68.57990258 455.25220806 -67.9109119 461.99332305 -66 469 C-66 470.32 -66 471.64 -66 473 C-69.66786393 471.49650623 -71.68910393 469.36271208 -74.25 466.375 C-75.30960938 465.14910156 -75.30960938 465.14910156 -76.390625 463.8984375 C-76.92171875 463.27195312 -77.4528125 462.64546875 -78 462 C-79.25648159 464.02016012 -79.25648159 464.02016012 -78.5625 466.5625 C-77.87809003 470.7450054 -77.91547543 474.7737713 -78 479 C-81 478 -81 478 -82.0625 476 C-82.371875 475.34 -82.68125 474.68 -83 474 C-83.66 473.67 -84.32 473.34 -85 473 C-86.485 478.445 -86.485 478.445 -88 484 C-88.99 483.67 -89.98 483.34 -91 483 C-92.37845533 478.864634 -92.28072732 474.68912368 -92.34179688 470.36132812 C-92.39406164 468.12894586 -92.39406164 468.12894586 -93 465 C-94.88324754 463.80055059 -94.88324754 463.80055059 -97 463 C-98.265625 460.6171875 -98.265625 460.6171875 -99.25 457.875 C-99.58515625 456.96492188 -99.9203125 456.05484375 -100.265625 455.1171875 C-100.50796875 454.41851563 -100.7503125 453.71984375 -101 453 C-103.54859606 462.96151759 -105.92259469 472.92773184 -108 483 C-109.32 483.33 -110.64 483.66 -112 484 C-112.17015625 483.13117188 -112.3403125 482.26234375 -112.515625 481.3671875 C-112.87914062 479.63855469 -112.87914062 479.63855469 -113.25 477.875 C-113.48203125 476.73804688 -113.7140625 475.60109375 -113.953125 474.4296875 C-114.83121445 470.91697482 -114.83121445 470.91697482 -117.0625 468.0625 C-119.38157685 464.39686239 -119.66015535 461.33953091 -119.75 457.125 C-119.77964844 456.43664062 -119.80929687 455.74828125 -119.83984375 455.0390625 C-119.90980536 453.35998374 -119.95725211 451.67999188 -120 450 C-121.32 451.65 -122.64 453.3 -124 455 C-124.66 454.67 -125.32 454.34 -126 454 C-126.20302734 455.71509766 -126.20302734 455.71509766 -126.41015625 457.46484375 C-126.96003027 461.85513847 -127.66867736 466.20583836 -128.4375 470.5625 C-128.55931641 471.27857422 -128.68113281 471.99464844 -128.80664062 472.73242188 C-129.60182939 477.26046569 -130.66451376 481.60041112 -132 486 C-132.99 486 -133.98 486 -135 486 C-135.13277344 485.28972656 -135.26554688 484.57945312 -135.40234375 483.84765625 C-135.57894531 482.92855469 -135.75554687 482.00945312 -135.9375 481.0625 C-136.11152344 480.14597656 -136.28554688 479.22945312 -136.46484375 478.28515625 C-136.77714988 476.04710156 -136.77714988 476.04710156 -138 475 C-138.66 478.63 -139.32 482.26 -140 486 C-140.99 485.67 -141.98 485.34 -143 485 C-144.10150267 481.44371997 -144.85631799 477.86027893 -145.64453125 474.22265625 C-146.67740057 470.71717718 -146.67740057 470.71717718 -150.0546875 469.7109375 C-151.02664063 469.47632813 -151.99859375 469.24171875 -153 469 C-155.73974534 463.91190151 -155.61581211 457.68193662 -156 452 C-156.598125 452.99 -157.19625 453.98 -157.8125 455 C-158.534375 455.99 -159.25625 456.98 -160 458 C-160.99 458 -161.98 458 -163 458 C-163.02505615 458.55985596 -163.0501123 459.11971191 -163.07592773 459.6965332 C-163.19203745 462.23541305 -163.3146958 464.77393553 -163.4375 467.3125 C-163.47681641 468.19357422 -163.51613281 469.07464844 -163.55664062 469.98242188 C-163.59853516 470.82998047 -163.64042969 471.67753906 -163.68359375 472.55078125 C-163.73858032 473.72120972 -163.73858032 473.72120972 -163.79467773 474.9152832 C-164 477 -164 477 -165 480 C-166.921875 479.2890625 -166.921875 479.2890625 -169 478 C-170.13181394 475.04233526 -170.46138645 472.14191239 -171 469 C-171.99 473.29 -172.98 477.58 -174 482 C-175.32 482.33 -176.64 482.66 -178 483 C-178.27263672 481.85724609 -178.27263672 481.85724609 -178.55078125 480.69140625 C-179.92569229 475.04369473 -181.38988895 469.50885825 -183.3515625 464.03515625 C-184.78604881 459.5329432 -185.11433593 455.40456921 -185.0625 450.6875 C-185.05347656 449.61886719 -185.04445313 448.55023437 -185.03515625 447.44921875 C-185.01775391 446.23685547 -185.01775391 446.23685547 -185 445 C-185.66 445 -186.32 445 -187 445 C-187.33 444.34 -187.66 443.68 -188 443 C-188.268125 443.99 -188.53625 444.98 -188.8125 446 C-189.62091512 448.79529454 -190.48265706 451.56355743 -191.4375 454.3125 C-191.66308594 454.96863281 -191.88867188 455.62476563 -192.12109375 456.30078125 C-193 458 -193 458 -196 460 C-196.33 460.99 -196.66 461.98 -197 463 C-197.62777344 463.30679687 -198.25554687 463.61359375 -198.90234375 463.9296875 C-202.11108988 465.56692482 -203.08170491 468.23907593 -204.75390625 471.3203125 C-205.16511719 471.87460937 -205.57632813 472.42890625 -206 473 C-206.99 473 -207.98 473 -209 473 C-208.34 463.1 -207.68 453.2 -207 443 C-209.31 445.97 -211.62 448.94 -214 452 C-216.6875 453.75 -216.6875 453.75 -219 455 C-219.70125 455.886875 -220.4025 456.77375 -221.125 457.6875 C-221.74375 458.450625 -222.3625 459.21375 -223 460 C-223.99 460 -224.98 460 -226 460 C-225.33673121 454.8307147 -223.08075343 450.37748635 -220.9375 445.6875 C-220.56044922 444.85154297 -220.18339844 444.01558594 -219.79492188 443.15429688 C-218.86788193 441.10072738 -217.93613122 439.04943713 -217 437 C-217.99 437.33 -218.98 437.66 -220 438 C-219.67 435.69 -219.34 433.38 -219 431 C-219.33 431.33 -219.66 431.66 -220 432 C-220.99 432.33 -221.98 432.66 -223 433 C-223 433.66 -223 434.32 -223 435 C-224.65 435.66 -226.3 436.32 -228 437 C-228.66 436.34 -229.32 435.68 -230 435 C-230.598125 435.495 -231.19625 435.99 -231.8125 436.5 C-234 438 -234 438 -237 438 C-236.34215037 434.70319035 -235.10579427 432.15882078 -233.4375 429.25 C-232.98246094 428.45078125 -232.52742187 427.6515625 -232.05859375 426.828125 C-231.70925781 426.22484375 -231.35992188 425.6215625 -231 425 C-238.85122375 429.71908661 -246.02539258 435.0715837 -253 441 C-254.60080151 436.99799622 -253.29279692 433.95443764 -252 430 C-252.66 431.32 -253.32 432.64 -254 434 C-254.99 434 -255.98 434 -257 434 C-257.02753831 432.4792733 -257.04663375 430.95839326 -257.0625 429.4375 C-257.07410156 428.59058594 -257.08570313 427.74367188 -257.09765625 426.87109375 C-256.98397478 423.52885856 -256.51827753 420.3014687 -256 417 C-256.77601563 417.81082031 -257.55203125 418.62164063 -258.3515625 419.45703125 C-265.53177939 426.85772793 -272.95602764 433.52891385 -281.22949219 439.68261719 C-282.41483845 440.56459849 -283.59517198 441.45335494 -284.77050781 442.34863281 C-296.83166727 451.53269626 -309.2384834 459.52241922 -325 458 C-330.58576051 456.4342944 -333.70590895 452.4804566 -336.65234375 447.671875 C-355.11660739 411.06446534 -337.49129564 362.02315503 -326 326 C-325.65211426 324.90703613 -325.30422852 323.81407227 -324.94580078 322.68798828 C-306.87106538 266.62735587 -306.87106538 266.62735587 -287.9765625 253.60546875 C-285.43768589 252.39146443 -283.17528308 252.00417341 -280.375 251.9375 C-274.1614726 254.71723594 -271.52746631 261.20738446 -269.1796875 267.22265625 C-266.55833641 275.61618773 -265.37547217 284.3322859 -264 293 C-263.78012966 294.38444312 -263.56023935 295.76888307 -263.34033203 297.15332031 C-263.2246286 297.88209381 -263.10892517 298.61086731 -262.98971558 299.36172485 C-262.37003073 303.26228533 -261.74813562 307.16248942 -261.125 311.0625 C-260.99879272 311.8545282 -260.87258545 312.6465564 -260.74255371 313.46258545 C-257.64680827 332.82058566 -253.8786913 352.00451731 -249 371 C-243.80293606 366.32768815 -240.11697875 360.68012564 -236.1875 354.9375 C-235.46828369 353.89400391 -234.74906738 352.85050781 -234.00805664 351.77539062 C-231.99865601 348.85478469 -229.99705834 345.92905497 -228 343 C-227.36674805 342.0721167 -227.36674805 342.0721167 -226.72070312 341.12548828 C-224.44249003 337.77485338 -222.21698282 334.39138453 -220 331 C-219.47615723 330.20190918 -218.95231445 329.40381836 -218.41259766 328.58154297 C-211.39742533 317.89220983 -204.43276212 307.17488992 -197.63208008 296.34765625 C-194.12852998 290.77274067 -190.58366325 285.22554876 -187.02441406 279.68603516 C-180.80896463 270.01093336 -174.67444591 260.2994734 -168.71484375 250.46484375 C-165.63895972 245.39083261 -162.50544399 240.35296132 -159.375 235.3125 C-153.59881462 225.99828598 -147.93831173 216.62163328 -142.3359375 207.20214844 C-135.33565402 195.43943806 -128.30479197 183.72527991 -120.79296875 172.28125 C-118.15074796 168.25283715 -115.58097694 164.18073975 -113.01220703 160.10522461 C-103.12119801 144.43007191 -92.6619762 129.15872863 -82 114 C-81.4747876 113.25314941 -80.9495752 112.50629883 -80.40844727 111.73681641 C-73.35992877 101.75447012 -66.063261 92.18171333 -58 83 C-57.36578125 82.25492187 -56.7315625 81.50984375 -56.078125 80.7421875 C-54.41579348 78.79771714 -52.72311791 76.89075155 -51 75 C-50.32710937 74.26136719 -49.65421875 73.52273438 -48.9609375 72.76171875 C-39.27266172 62.57704722 -28.67942527 56.20348679 -14.4375 55.5625 C-5.76039923 55.8595762 0.69864358 58.95048841 6.625 65.21875 C9.8026799 69.33528987 10.45610179 72.6310562 10.3046875 77.75390625 C9.80745962 81.4193682 8.50111555 83.31130079 6 86 C2.43587838 88.2729973 -1.38019886 89.76548065 -5.32421875 91.2578125 C-9.48683448 93.04624088 -12.63389631 95.70032767 -16 98.6875 C-16.61665527 99.22640869 -17.23331055 99.76531738 -17.86865234 100.32055664 C-21.58581874 103.61457886 -25.02488035 106.98760545 -28.1796875 110.83203125 C-30.10538424 113.12551128 -32.1396115 115.29827626 -34.1953125 117.47509766 C-39.95867395 123.59142879 -45.23140169 129.95589867 -50.359375 136.609375 C-52.783344 139.74814946 -55.3116079 142.78604352 -57.875 145.8125 C-63.64778087 152.68485818 -69.04518845 159.83162871 -74.46435547 166.98388672 C-75.84117775 168.79148583 -77.23010753 170.58829319 -78.62890625 172.37890625 C-95.09883329 193.50165377 -110.16300285 215.9283946 -123.125 239.375 C-130.00847553 251.81721279 -137.56320553 263.88360261 -145 276 C-145.52335938 276.85287598 -146.04671875 277.70575195 -146.5859375 278.58447266 C-158.27352579 297.58093061 -170.9276385 315.93286502 -184 334 C-184.54350098 334.75152344 -185.08700195 335.50304687 -185.64697266 336.27734375 C-192.11166068 345.19315825 -198.62190147 353.98749536 -205.76953125 362.37109375 C-207.92662448 364.91351712 -210.00110208 367.5047162 -212.0625 370.125 C-215.4941839 374.44227975 -219.1198448 378.54353262 -222.8359375 382.6171875 C-224.81980542 384.80159081 -226.75955464 387.01630119 -228.6875 389.25 C-230.75384385 391.64160167 -232.87419945 393.84863049 -235.1875 396 C-237.9672776 398.71324037 -239.5107352 401.58720937 -241.12109375 405.09765625 C-242.2364314 407.51174262 -243.59183895 409.74694232 -245 412 C-244.443125 411.649375 -243.88625 411.29875 -243.3125 410.9375 C-240.46113217 409.78154007 -238.91482778 410.19032562 -236 411 C-236.94933899 414.35433109 -237.89748835 417.69246505 -239 421 C-237.98292969 420.25556641 -237.98292969 420.25556641 -236.9453125 419.49609375 C-230.68045915 414.92327143 -224.37161309 410.42281169 -218 406 C-217 408 -217 408 -217.77734375 410.3828125 C-218.16019531 411.28773438 -218.54304687 412.19265625 -218.9375 413.125 C-219.31777344 414.03507812 -219.69804688 414.94515625 -220.08984375 415.8828125 C-220.39019531 416.58148437 -220.69054687 417.28015625 -221 418 C-218.06272706 418.34967535 -215.86472243 418.57851148 -213.3359375 416.88671875 C-211.87474878 415.60907837 -210.43621537 414.30565034 -209 413 C-208.34 413 -207.68 413 -207 413 C-204.70560784 422.59473083 -209.32823863 431.23996019 -213 440 C-211.55836993 438.27427512 -210.12186835 436.5442653 -208.6875 434.8125 C-207.88699219 433.84957031 -207.08648438 432.88664062 -206.26171875 431.89453125 C-203.9672799 429.11629092 -203.9672799 429.11629092 -202.45703125 426.19921875 C-201 424 -201 424 -198.8125 423.1875 C-198.214375 423.125625 -197.61625 423.06375 -197 423 C-197.54929011 429.48162336 -198.779769 435.5691497 -200.30078125 441.890625 C-201.13394197 445.59563022 -201.62978393 449.22379609 -202 453 C-195.2057405 444.8187467 -192.15984847 435.97725047 -189 426 C-186 427 -186 427 -184.8125 429.0625 C-184.544375 429.701875 -184.27625 430.34125 -184 431 C-183.34 431 -182.68 431 -182 431 C-180.35 440.9 -178.7 450.8 -177 461 C-176.01 457.7 -175.02 454.4 -174 451 C-172.35 451.33 -170.7 451.66 -169 452 C-168.67 452.66 -168.34 453.32 -168 454 C-166.68 451.36 -165.36 448.72 -164 446 C-162.35 446.33 -160.7 446.66 -159 447 C-157.02 441.06 -157.02 441.06 -155 435 C-154.01 435.33 -153.02 435.66 -152 436 C-149.70387244 447.52164009 -149.70387244 447.52164009 -150 453 C-149.01 453 -148.02 453 -147 453 C-146.35089846 454.58199631 -145.70585306 456.16565724 -145.0625 457.75 C-144.52302734 459.07257813 -144.52302734 459.07257813 -143.97265625 460.421875 C-143 463 -143 463 -142 467 C-141.34 463.7 -140.68 460.4 -140 457 C-139.01 457 -138.02 457 -137 457 C-136.01 459.31 -135.02 461.62 -134 464 C-132.29573212 454.33696657 -131.47720232 444.78264757 -131 435 C-129.109375 435.21484375 -129.109375 435.21484375 -127 436 C-125.953125 438.06640625 -125.953125 438.06640625 -125.25 440.5625 C-125.00765625 441.38878906 -124.7653125 442.21507812 -124.515625 443.06640625 C-124.34546875 443.70449219 -124.1753125 444.34257813 -124 445 C-121.7903399 441.42245507 -119.84509889 437.77805964 -118 434 C-117.01 434 -116.02 434 -115 434 C-114.91435791 434.67579102 -114.82871582 435.35158203 -114.74047852 436.04785156 C-114.35029735 439.1155555 -113.95643852 442.1827764 -113.5625 445.25 C-113.42779297 446.31347656 -113.29308594 447.37695312 -113.15429688 448.47265625 C-113.02216797 449.49746094 -112.89003906 450.52226563 -112.75390625 451.578125 C-112.57323608 452.99206543 -112.57323608 452.99206543 -112.38891602 454.43457031 C-112.04894631 456.67713258 -111.59605926 458.81369963 -111 461 C-110.01737335 456.95916652 -109.03951265 452.9171942 -108.0625 448.875 C-107.78470703 447.73289062 -107.50691406 446.59078125 -107.22070312 445.4140625 C-106.95322266 444.30546875 -106.68574219 443.196875 -106.41015625 442.0546875 C-106.04096069 440.53077393 -106.04096069 440.53077393 -105.66430664 438.97607422 C-104.99904673 435.99572937 -104.47385636 433.01616457 -104 430 C-102.68 430.33 -101.36 430.66 -100 431 C-99.80664062 431.83144531 -99.61328125 432.66289063 -99.4140625 433.51953125 C-99.15367187 434.60621094 -98.89328125 435.69289063 -98.625 436.8125 C-98.36976563 437.89144531 -98.11453125 438.97039062 -97.8515625 440.08203125 C-97.11267119 443.15533343 -97.11267119 443.15533343 -95 446 C-94.01 446.33 -93.02 446.66 -92 447 C-91.0859375 449.4765625 -91.0859375 449.4765625 -90.375 452.625 C-90.12878906 453.70523437 -89.88257813 454.78546875 -89.62890625 455.8984375 C-88.94617248 459.26545994 -88.38778401 462.58750073 -88 466 C-86.09582587 464.09582587 -86.64690544 460.73473535 -86.5 458.1875 C-86.05292408 450.48342382 -86.05292408 450.48342382 -85 447 C-80.78417661 447.60226048 -80.42902856 448.57097144 -77 452 C-75.515 438.14 -75.515 438.14 -74 424 C-72.68 424 -71.36 424 -70 424 C-69.61328125 425.14597656 -69.2265625 426.29195312 -68.828125 427.47265625 C-68.30245485 429.00273186 -67.77639221 430.53267265 -67.25 432.0625 C-66.99734375 432.81466797 -66.7446875 433.56683594 -66.484375 434.34179688 C-64.78051917 439.26168059 -62.71525782 443.55524101 -60 448 C-61.36654045 435.44530816 -61.36654045 435.44530816 -63.625 423.02734375 C-64.12334961 420.33314118 -64.14368243 417.72996617 -64 415 C-60.4421993 416.41709011 -59.20743671 417.85820005 -57.5 421.25 C-54.13586534 428.58023998 -54.13586534 428.58023998 -48 433 C-48 432.01 -48 431.02 -48 430 C-47.34 429.67 -46.68 429.34 -46 429 C-45.64153791 425.95987847 -45.55563467 422.94118645 -45.44140625 419.8828125 C-44.96639425 416.78052173 -44.44710283 415.86632376 -42 414 C-38.70390688 416.92373113 -37.2391376 419.32734381 -35.875 423.5 C-34.77384574 426.81256324 -33.64360245 429.91642727 -32 433 C-32.02320313 432.25234375 -32.04640625 431.5046875 -32.0703125 430.734375 C-32.08835937 429.74953125 -32.10640625 428.7646875 -32.125 427.75 C-32.14820313 426.77546875 -32.17140625 425.8009375 -32.1953125 424.796875 C-31.98925007 421.84606099 -31.30071541 420.60143083 -30 418 C-29.32157197 415.10646358 -28.85161621 412.18264874 -28.375 409.25 C-28.2409375 408.45722656 -28.106875 407.66445313 -27.96875 406.84765625 C-27.64012702 404.89939142 -27.31929295 402.94981561 -27 401 C-25.68 401 -24.36 401 -23 401 C-21.02 409.25 -19.04 417.5 -17 426 C-16.67 424.35 -16.34 422.7 -16 421 C-13 422 -13 422 -10 427 C-10 422.71 -10 418.42 -10 414 C-9.34 413.67 -8.68 413.34 -8 413 C-7.67 413.66 -7.34 414.32 -7 415 C-5.515 408.565 -5.515 408.565 -4 402 C-0.38677599 403.806612 0.83748791 404.66418971 3.25 407.625 C3.77078125 408.25664063 4.2915625 408.88828125 4.828125 409.5390625 C5.21484375 410.02117187 5.6015625 410.50328125 6 411 C5.67 408.69 5.34 406.38 5 404 C5.94875 404.33 6.8975 404.66 7.875 405 C10.77062452 406.10159191 10.77062452 406.10159191 13 406 C12.360625 404.9275 11.72125 403.855 11.0625 402.75 C8.48352327 398.42397451 7.87315258 394.81775587 7.90234375 389.796875 C7.90556641 388.8171875 7.90878906 387.8375 7.91210938 386.828125 C7.92048828 385.81234375 7.92886719 384.7965625 7.9375 383.75 C7.94201172 382.71875 7.94652344 381.6875 7.95117188 380.625 C7.96293912 378.08327427 7.97937989 375.54166681 8 373 C13.01466207 375.21901371 14.11005284 378.66206565 16.4375 383.46875 C18.08974934 386.14539393 19.09158617 386.94695361 22 388 C21.67 386.35 21.34 384.7 21 383 C25.68091299 383 26.62101604 383.99645871 30 387 C30.33 386.67 30.66 386.34 31 386 C30.649375 385.113125 30.29875 384.22625 29.9375 383.3125 C28.98244398 379.93796874 29.02848868 378.30313848 30 375 C33.47723736 376.25566905 36.09382458 377.73343156 39 380 C38.74605469 379.52175781 38.49210937 379.04351563 38.23046875 378.55078125 C35.32951074 372.32512978 34.20286771 366.12031586 33.25 359.375 C33.05893677 358.03369019 33.05893677 358.03369019 32.86401367 356.6652832 C32.16921124 351.3965676 31.87615589 346.31291224 32 341 C33.81591797 341.19970703 33.81591797 341.19970703 36 342 C37.52392578 344.08544922 37.52392578 344.08544922 38.9453125 346.8046875 C39.46480469 347.78050781 39.98429687 348.75632812 40.51953125 349.76171875 C41.04933594 350.78910156 41.57914063 351.81648438 42.125 352.875 C43.18921804 354.89369657 44.2542855 356.91194562 45.3203125 358.9296875 C45.78711426 359.82929199 46.25391602 360.72889648 46.73486328 361.65576172 C48.03912586 364.15942061 48.03912586 364.15942061 50 367 C49.09362627 363.53888751 48.17297505 360.08171907 47.25 356.625 C46.99734375 355.65949219 46.7446875 354.69398438 46.484375 353.69921875 C44.94397477 347.9612279 43.1256383 342.52485777 40.76074219 337.07177734 C40 335 40 335 40 332 C44.4113957 332.43063625 46.83083003 335.4186126 49.75 338.4375 C50.2764209 338.97157471 50.8028418 339.50564941 51.34521484 340.0559082 C55.35885763 344.1877434 59.00138749 348.53981003 62.4765625 353.13671875 C63.87711063 355.10912552 63.87711063 355.10912552 66 356 C65.71125 355.29875 65.4225 354.5975 65.125 353.875 C63.33711335 349.30595633 61.85378098 344.83809222 61 340 C64.40931897 338.86356034 65.00335456 339.13252236 68.1875 340.4375 C69.26064453 340.86869141 69.26064453 340.86869141 70.35546875 341.30859375 C70.89816406 341.53675781 71.44085937 341.76492188 72 342 C71.25943359 341.11248047 71.25943359 341.11248047 70.50390625 340.20703125 C69.86324219 339.41683594 69.22257812 338.62664062 68.5625 337.8125 C67.92441406 337.03519531 67.28632812 336.25789063 66.62890625 335.45703125 C64.92823443 332.89174929 64.38169969 331.02671729 64 328 C67.56523819 328.61118369 70.66273931 329.62022499 74 331 C71.76093802 327.61668072 69.51884407 324.23539355 67.27392578 320.85595703 C66.51072 319.70612086 65.74834376 318.55573362 64.98681641 317.40478516 C63.89183509 315.75017845 62.79361637 314.09771562 61.6953125 312.4453125 C60.7055542 310.95281982 60.7055542 310.95281982 59.69580078 309.43017578 C58.07947094 306.9626482 58.07947094 306.9626482 56 305 C56 304.01 56 303.02 56 302 C59.58991524 302.96314799 62.37513061 304.14452091 65.3125 306.375 C68.59380999 308.83959627 71.93926266 310.43179871 75.7109375 312.01953125 C79.22186879 313.52336018 82.59699454 315.26756086 86 317 C85.67 316.34 85.34 315.68 85 315 C85.66 315 86.32 315 87 315 C86.79375 314.21625 86.5875 313.4325 86.375 312.625 C86.25125 311.75875 86.1275 310.8925 86 310 C86.66 309.34 87.32 308.68 88 308 C87.23816406 307.56429688 86.47632813 307.12859375 85.69140625 306.6796875 C68.04076539 296.49916805 68.04076539 296.49916805 61 290 C61 289.34 61 288.68 61 288 C67.735671 288.48111936 73.99711794 289.89868287 80.50195312 291.62792969 C83.42560613 292.39768374 85.9614163 293 89 293 C80.51012289 288.57846154 72.02195574 284.67854853 63.08203125 281.26171875 C60 280 60 280 57 278 C57 277.01 57 276.02 57 275 C57.9379541 275.03029297 58.8759082 275.06058594 59.84228516 275.09179688 C63.34226148 275.20437808 66.84226313 275.31609828 70.34228516 275.42724609 C71.8533638 275.47540668 73.36443175 275.52390439 74.87548828 275.57275391 C77.05498531 275.64315295 79.23451872 275.7123153 81.4140625 275.78125 C82.7232666 275.82314453 84.0324707 275.86503906 85.38134766 275.90820312 C90.19075292 276.04210608 90.19075292 276.04210608 95 276 C95.33 275.67 95.66 275.34 96 275 C94.18802053 274.09401027 92.37577281 273.18855467 90.5625 272.28515625 C88.68340999 271.34274678 86.80906471 270.3908609 84.9375 269.43359375 C83.885625 268.89863281 82.83375 268.36367188 81.75 267.8125 C80.75484375 267.30332031 79.7596875 266.79414062 78.734375 266.26953125 C76.45102651 265.20940516 74.45609575 264.4853713 72 264 C72 263.01 72 262.02 72 261 C81.88798862 257.70400379 93.64914335 258.88041372 104 259 C103.4946875 258.66226562 102.989375 258.32453125 102.46875 257.9765625 C101.8190625 257.53054688 101.169375 257.08453125 100.5 256.625 C99.8503125 256.18414063 99.200625 255.74328125 98.53125 255.2890625 C97.77328125 254.65097656 97.77328125 254.65097656 97 254 C97 253.34 97 252.68 97 252 C99.97 252.66 102.94 253.32 106 254 C106 253.34 106 252.68 106 252 C107.65 251.67 109.3 251.34 111 251 C110.08476563 250.54109375 109.16953125 250.0821875 108.2265625 249.609375 C107.0257266 248.99019399 105.82522292 248.37036838 104.625 247.75 C104.02171875 247.44964844 103.4184375 247.14929688 102.796875 246.83984375 C98.96813776 244.84039208 98.01615241 244.03230481 96 240 C98.97 240 101.94 240 105 240 C104.3709375 239.56429687 103.741875 239.12859375 103.09375 238.6796875 C101.31109022 237.43934289 99.53266135 236.19290223 97.7578125 234.94140625 C96.03299528 233.72719356 94.29983601 232.52464905 92.5546875 231.33984375 C91.83539062 230.83582031 91.11609375 230.33179688 90.375 229.8125 C89.72273438 229.36519531 89.07046875 228.91789063 88.3984375 228.45703125 C87 227 87 227 87 223 C89.31 223 91.62 223 94 223 C91.63707344 220.47411298 90.33537489 219.11179163 87 218 C87 215.69 87 213.38 87 211 C91.16508837 210.32321814 95.33228675 209.66040852 99.5 209 C100.67304687 208.80921875 101.84609375 208.6184375 103.0546875 208.421875 C109.11308323 207.46886893 114.86677782 206.75710011 121 207 C121 206.34 121 205.68 121 205 C120.29875 204.9175 119.5975 204.835 118.875 204.75 C115.22564964 203.79799556 112.96305061 202.33261431 110 200 C109.505 198.9275 109.01 197.855 108.5 196.75 C106.23637244 193.6531606 106.23637244 193.6531606 102.640625 193.6171875 C99.07569975 193.62434598 95.55515362 193.74334453 92 194 C92.3125 192.12890625 92.3125 192.12890625 93 190 C94.98075027 188.63823419 96.98079663 187.30406884 99 186 C99.33 185.01 99.66 184.02 100 183 C98.86820313 182.93941406 97.73640625 182.87882813 96.5703125 182.81640625 C95.08852855 182.73200083 93.6067584 182.64735283 92.125 182.5625 C91.37863281 182.52318359 90.63226562 182.48386719 89.86328125 182.44335938 C84.2265625 182.11328125 84.2265625 182.11328125 82 181 C82.33 180.01 82.66 179.02 83 178 C85.06640625 177.05078125 85.06640625 177.05078125 87.5625 176.3125 C88.80193359 175.93544922 88.80193359 175.93544922 90.06640625 175.55078125 C90.70449219 175.36902344 91.34257813 175.18726563 92 175 C92 175.66 92 176.32 92 177 C92.54269531 176.7834375 93.08539062 176.566875 93.64453125 176.34375 C94.35996094 176.0653125 95.07539062 175.786875 95.8125 175.5 C96.87404297 175.08234375 96.87404297 175.08234375 97.95703125 174.65625 C100 174 100 174 103 174 C99.82460444 170.57421051 99.82460444 170.57421051 96 168 C97.83881782 163.27735315 100.8472914 162.186416 105.24609375 160.10546875 C109.12631664 158.54787573 112.88700086 157.72972565 117 157 C114.69 156.01 112.38 155.02 110 154 C110 153.67 110 153.34 110 153 C103.77735999 152.29288182 99.47917537 154.28246346 93.8671875 156.90625 C90.99594028 158.00154867 89.03733576 158.22251544 86 158 C86 156.35 86 154.7 86 153 C85.34 153 84.68 153 84 153 C84 152.01 84 151.02 84 150 C85.13888672 149.51080078 85.13888672 149.51080078 86.30078125 149.01171875 C87.29464844 148.57472656 88.28851562 148.13773438 89.3125 147.6875 C90.29863281 147.25824219 91.28476562 146.82898438 92.30078125 146.38671875 C95.27132835 145.03450404 95.27132835 145.03450404 98 142 C92.72 142.33 87.44 142.66 82 143 C83.26143731 137.95425077 84.76327939 137.46529723 89.0625 134.75 C90.16722656 134.04359375 91.27195312 133.3371875 92.41015625 132.609375 C93.26480469 132.07828125 94.11945313 131.5471875 95 131 C94.67 129.35 94.34 127.7 94 126 C92.68 125.67 91.36 125.34 90 125 C90.33 124.0925 90.66 123.185 91 122.25 C92.19605723 118.92954193 92.19605723 118.92954193 92 115 C93.75 113.515625 93.75 113.515625 96 112.25 C96.7425 111.82203125 97.485 111.3940625 98.25 110.953125 C98.8275 110.63859375 99.405 110.3240625 100 110 C99.34 109.34 98.68 108.68 98 108 C98.36681658 105.06546739 98.86437246 104.13562754 101 102 C99.94039062 102.15597656 98.88078125 102.31195313 97.7890625 102.47265625 C96.40108813 102.66959856 95.01306468 102.86619523 93.625 103.0625 C92.92632813 103.16626953 92.22765625 103.27003906 91.5078125 103.37695312 C86.2265625 104.11328125 86.2265625 104.11328125 84 103 C84.1875 100.75 84.1875 100.75 85 98 C86.65 96.68 88.3 95.36 90 94 C81.75 94.99 73.5 95.98 65 97 C64.67 96.01 64.34 95.02 64 94 C64.721875 93.59007812 65.44375 93.18015625 66.1875 92.7578125 C67.115625 92.21898437 68.04375 91.68015625 69 91.125 C69.928125 90.59132813 70.85625 90.05765625 71.8125 89.5078125 C72.8953125 88.76144531 72.8953125 88.76144531 74 88 C74 87.34 74 86.68 74 86 C72.02 85.67 70.04 85.34 68 85 C68.50603992 82.83125748 68.99983813 81.00032373 70 79 C65.82131523 79.67398142 61.96775368 80.98107476 57.98828125 82.37890625 C56 83 56 83 54 83 C52.66216607 83.31478446 51.32796291 83.64587656 50 84 C50.33 82.68 50.66 81.36 51 80 C51.66 80 52.32 80 53 80 C53.268125 79.29875 53.53625 78.5975 53.8125 77.875 C55 75 55 75 56.5 72.3125 C57.84882341 69.33384831 58.40447115 67.11680484 58.9375 63.9375 C59.69134468 59.6657135 60.86524337 57.13475663 64 54 C63.443125 54.2165625 62.88625 54.433125 62.3125 54.65625 C58.36288582 56.09732544 55.16359208 57.19057981 50.9375 56.8125 C46.09000911 57.0433329 44.43777647 58.57508876 40.83203125 61.59765625 C38.62625005 63.28609005 36.76414517 63.82724093 34 64 C34.3954811 60.1440593 35.34369178 57.08764437 37 53.625 C38.42330832 50.59473068 39.26674312 48.08513072 39.5625 44.75 C40.00278621 40.97611823 40.81130528 39.04514048 43 36 C42.236875 35.979375 41.47375 35.95875 40.6875 35.9375 C38 35 38 35 36.1875 31.4375 C35.795625 30.303125 35.40375 29.16875 35 28 C34.80664062 28.68707031 34.61328125 29.37414062 34.4140625 30.08203125 C34.02347656 31.43361328 34.02347656 31.43361328 33.625 32.8125 C33.36976563 33.70582031 33.11453125 34.59914063 32.8515625 35.51953125 C32 38 32 38 30 41 C29.19820312 41.28746094 28.39640625 41.57492187 27.5703125 41.87109375 C24.25342396 43.32790346 23.54241997 44.89622437 21.875 48.0625 C19.30854155 52.89715282 19.30854155 52.89715282 16 54 C15.67 48.39 15.34 42.78 15 37 C14.34 37 13.68 37 13 37 C12.93941406 37.59167969 12.87882812 38.18335938 12.81640625 38.79296875 C12.37987629 42.90978208 11.91328654 46.95544533 11 51 C9.68 51 8.36 51 7 51 C5.63233995 44.01563899 4.58476056 37.09406894 4 30 C3.566875 30.495 3.13375 30.99 2.6875 31.5 C1 33 1 33 -2 33 C-3.7479503 27.75614911 -4.19392201 23.52677733 -4 18 C-4.40992188 18.69867188 -4.81984375 19.39734375 -5.2421875 20.1171875 C-5.78101563 21.02726562 -6.31984375 21.93734375 -6.875 22.875 C-7.40867187 23.77992188 -7.94234375 24.68484375 -8.4921875 25.6171875 C-10 28 -10 28 -12 30 C-14.75390625 29.9765625 -14.75390625 29.9765625 -18.5625 29.625 C-41.03953588 27.94906965 -63.77189519 28.12216774 -86 32 C-87.20317871 32.20931152 -88.40635742 32.41862305 -89.64599609 32.63427734 C-135.96123224 40.90046765 -180.52166109 60.75174845 -215.55517578 92.69042969 C-216.91288271 93.92103799 -218.29745649 95.12181828 -219.68359375 96.3203125 C-242.39044367 116.08696189 -260.84560491 144.1537198 -263.87109375 174.73046875 C-264.8159208 191.3651511 -263.2593473 205.43819469 -252.5390625 218.82421875 C-250.43631036 221.04803844 -248.93684085 222.02105305 -246 223 C-246.33 223.99 -246.66 224.98 -247 226 C-260.03205161 223.97041819 -269.17987645 218.76016473 -277.23828125 208.015625 C-289.65416113 188.84232651 -291.32711975 168.04339013 -287 146 C-281.78871787 123.00904942 -271.01589619 103.08626867 -255.40722656 85.57910156 C-254.00712894 84.00799965 -252.62454326 82.42265004 -251.2421875 80.8359375 C-245.36059848 74.1682525 -239.02130321 68.46445037 -232 63 C-231.23558594 62.35804688 -230.47117187 61.71609375 -229.68359375 61.0546875 C-200.65046396 36.78672453 -161.31213517 18.82510127 -124 13 C-122.57787422 12.74619285 -121.15601275 12.49090163 -119.734375 12.234375 C-109.18513169 10.41412213 -98.6109143 9.49628341 -87.9375 8.8125 C-86.62974609 8.72863037 -85.32199219 8.64476074 -83.97460938 8.55834961 C-71.98867214 7.84865596 -60.2882111 7.97512795 -48.3125 8.8125 C-47.06041748 8.89870605 -45.80833496 8.98491211 -44.51831055 9.07373047 C-33.2792113 9.89362556 -22.1289917 11.20102929 -10.9699707 12.75634766 C-9.0000176 13.04091597 -9.0000176 13.04091597 -7 13 C-6.6596875 12.01 -6.6596875 12.01 -6.3125 11 C-5.18777446 8.42919876 -3.98486244 6.09951824 -2.5625 3.6875 C-2.15128906 2.99011719 -1.74007813 2.29273438 -1.31640625 1.57421875 C-0.88199219 1.05472656 -0.44757813 0.53523438 0 0 Z M103 218 C105.62198774 220.15377564 107.64404172 221.40072174 111 222 C108.60490662 219.10067643 106.68754757 218.49831724 103 218 Z M-289 299 C-309.55521048 335.60700174 -327.27763707 380.55883015 -322.25 423.375 C-322.16637207 424.09743896 -322.08274414 424.81987793 -321.99658203 425.56420898 C-321.16212425 432.00665099 -319.39745395 437.95981262 -317 444 C-310.26052675 440.55538034 -304.73821189 435.90022545 -299 431 C-298.20722656 430.33226562 -297.41445313 429.66453125 -296.59765625 428.9765625 C-284.33686155 418.32741968 -273.54270068 406.11279341 -264 393 C-264.26103516 392.42894531 -264.52207031 391.85789062 -264.79101562 391.26953125 C-278.62106681 360.79982128 -285.94021099 332.36690738 -288 299 C-288.33 299 -288.66 299 -289 299 Z M63 369 C64 371 64 371 64 371 Z M51 370 C52 372 52 372 52 372 Z M18 405 C19 407 19 407 19 407 Z M19 407 C20 409 20 409 20 409 Z M20 409 C21 411 21 411 21 411 Z M23 413 C24 415 24 415 24 415 Z M-251 427 C-250 429 -250 429 -250 429 Z M-206 439 C-205 441 -205 441 -205 441 Z M-51 440 C-50 442 -50 442 -50 442 Z M-55 450 C-54 452 -54 452 -54 452 Z " fill="#FFFFFF" transform="translate(768,346)"/>
<path d="M0 0 C5.0626225 2.54862528 8.93423086 6.24023229 12 11 C13.59830013 17.25691137 11.33775918 22.23495865 8.1875 27.55859375 C7.46310501 28.70874834 6.73319473 29.85543494 6 31 C5.50113281 31.78004395 5.00226563 32.56008789 4.48828125 33.36376953 C1.17415025 38.52326893 -2.17759523 43.65686122 -5.5612793 48.77099609 C-7.09642499 51.14939083 -8.55575522 53.56553067 -10 56 C5.06884081 58.28172653 20.14591254 60.07244165 35.3125 61.5625 C36.39696411 61.67016693 37.48142822 61.77783386 38.59875488 61.88876343 C52.13595463 63.22764423 65.67210679 64.46963542 79.25 65.3125 C80.46469971 65.38863525 81.67939941 65.46477051 82.9309082 65.54321289 C98.79585117 67.16861139 98.79585117 67.16861139 114 64 C116.95641235 61.04358765 117.24619004 58.14848761 117.4375 54.125 C117.20195783 45.42171678 114.58990444 36.63118243 111.25 28.625 C109.74438587 24.25871902 109.71476768 20.56371713 110 16 C111.796875 14.91796875 111.796875 14.91796875 114 14 C126.33804545 18.9826722 131.9724801 31.52686696 137 43 C141.51522475 53.87817836 144.39410691 65.19803887 140.11328125 76.640625 C135.4979066 86.42198041 129.34924855 94.86646273 120.3125 100.8125 C119.73177734 101.20630859 119.15105469 101.60011719 118.55273438 102.00585938 C109.10789921 108.37156909 98.8720107 105.71369179 88 104.4375 C87.25647278 104.35108246 86.51294556 104.26466492 85.74688721 104.17562866 C46.89289156 99.63141773 8.41021969 93.38260604 -30 86 C-30.27908203 86.8962207 -30.55816406 87.79244141 -30.84570312 88.71582031 C-31.8514326 91.57729936 -32.94651853 93.94076894 -34.46875 96.546875 C-34.95190674 97.3817041 -35.43506348 98.2165332 -35.93286133 99.07666016 C-36.70859497 100.39996338 -36.70859497 100.39996338 -37.5 101.75 C-38.59852097 103.64793726 -39.69616465 105.54638255 -40.79296875 107.4453125 C-41.33872559 108.38793945 -41.88448242 109.33056641 -42.44677734 110.30175781 C-44.60732955 114.05504655 -46.71711813 117.83503819 -48.8125 121.625 C-49.20590576 122.3360791 -49.59931152 123.0471582 -50.00463867 123.77978516 C-50.85615554 125.31922615 -51.70746423 126.85878231 -52.55859375 128.3984375 C-54.20068031 131.36220348 -55.8499946 134.32188547 -57.5 137.28125 C-65.19439664 151.08763525 -72.81402247 164.93134709 -80.30371094 178.85009766 C-81.79807543 181.62503874 -83.29633804 184.39783912 -84.79588318 187.16998291 C-91.43429434 199.44874269 -97.96913654 211.7648362 -104.15551758 224.27929688 C-106.95709231 229.94182159 -109.8436919 235.54849566 -112.8125 241.125 C-117.3299844 249.61867394 -121.62938525 258.21706728 -125.91015625 266.83157349 C-129.61908356 274.29226761 -133.38853169 281.712264 -137.3125 289.0625 C-141.00320984 295.98463466 -144.43269291 303.00051495 -147.75610352 310.10571289 C-150.01843976 314.94107756 -152.34138539 319.73594798 -154.75 324.5 C-166.57352807 348.0127657 -177.46856003 371.8870853 -188 396 C-188.2724353 396.62350342 -188.54487061 397.24700684 -188.82556152 397.8894043 C-192.04417053 405.2627982 -195.20817111 412.6581678 -198.33642578 420.0703125 C-199.52939821 422.8943224 -200.73270108 425.71372934 -201.94091797 428.53125 C-210.19989269 447.8071263 -218.02418109 467.15222887 -224.8125 487 C-225.10122986 487.83792084 -225.38995972 488.67584167 -225.68743896 489.53915405 C-233.16311556 511.34549965 -238.99577524 531.47606937 -229.859375 553.78515625 C-228.64461588 556.91592179 -229.06755623 558.80304993 -230 562 C-232.63251875 566.19252986 -235.33981744 568.32233428 -240 570 C-244.70097786 569.63091496 -247.81232994 568.22740596 -251.75 565.6875 C-252.69359375 565.09324219 -253.6371875 564.49898437 -254.609375 563.88671875 C-257.58293806 561.53993614 -258.782576 559.61368807 -259.29052734 555.84375 C-259.98374659 520.06469227 -247.44861752 484.13770159 -235.1875 450.8125 C-234.65508012 449.35835804 -234.12277371 447.90417452 -233.59057617 446.44995117 C-227.142469 428.85874907 -220.44241725 411.40038097 -213.27441406 394.08886719 C-211.88957228 390.73235029 -210.51856793 387.37036003 -209.1484375 384.0078125 C-203.61830422 370.47868814 -197.85163288 357.09662512 -191.69140625 343.83984375 C-188.99910243 338.03441248 -186.43053591 332.17912571 -183.875 326.3125 C-165.79751744 284.98645018 -146.3323229 244.25468106 -126.01123047 203.98974609 C-121.67496521 195.39424981 -117.37434594 186.78080877 -113.10238647 178.15318298 C-106.45916917 164.73742539 -99.80166673 151.35766766 -92.52416992 138.27099609 C-89.6211411 133.0326331 -86.82327941 127.75208794 -84.1015625 122.41796875 C-83.76643143 121.76254593 -83.43130035 121.10712311 -83.08601379 120.43183899 C-81.43444924 117.19891793 -79.79187171 113.96185931 -78.16186523 110.71801758 C-75.19435754 104.89202245 -72.35415312 99.86368168 -68 95 C-66.62273967 92.52336954 -66.62273967 92.52336954 -65.6875 90.125 C-65.36136719 89.34382813 -65.03523438 88.56265625 -64.69921875 87.7578125 C-64.46847656 87.17773438 -64.23773437 86.59765625 -64 86 C-65.98 86.99 -65.98 86.99 -68 88 C-68.99 85.36 -69.98 82.72 -71 80 C-74.11227195 80 -76.94152152 80.45627049 -80 81 C-79.34 79.02 -78.68 77.04 -78 75 C-80.42008431 75.10646089 -80.42008431 75.10646089 -83 76 C-86.9388441 81.65960175 -88.6151564 88.20109648 -89 95 C-89.66 95 -90.32 95 -91 95 C-91.33 93.02 -91.66 91.04 -92 89 C-92.66 89.33 -93.32 89.66 -94 90 C-94.33 87.03 -94.66 84.06 -95 81 C-95.66 81 -96.32 81 -97 81 C-101 75.58823529 -101 75.58823529 -101 73 C-103.52127625 75.04103315 -104.21902956 76.52932144 -105.5 79.625 C-105.995 80.73875 -106.49 81.8525 -107 83 C-108.485 83.495 -108.485 83.495 -110 84 C-110.18175781 83.28972656 -110.36351562 82.57945312 -110.55078125 81.84765625 C-110.80214844 80.92855469 -111.05351562 80.00945312 -111.3125 79.0625 C-111.55613281 78.14597656 -111.79976563 77.22945313 -112.05078125 76.28515625 C-112.36402344 75.53105469 -112.67726563 74.77695313 -113 74 C-113.99 73.67 -114.98 73.34 -116 73 C-116.4640625 74.2065625 -116.4640625 74.2065625 -116.9375 75.4375 C-118 78 -118 78 -119 79 C-119.04063832 80.66617115 -119.042721 82.33388095 -119 84 C-120.8046875 83.84375 -120.8046875 83.84375 -123 83 C-124.6328125 80.53125 -124.6328125 80.53125 -126.125 77.5 C-127.82394536 73.53568263 -127.82394536 73.53568263 -131 71 C-131.103125 71.70125 -131.20625 72.4025 -131.3125 73.125 C-132.10571772 76.44209227 -133.2659086 79.06538379 -135 82 C-136.485 82.495 -136.485 82.495 -138 83 C-138.06058594 82.24074219 -138.12117188 81.48148437 -138.18359375 80.69921875 C-138.30927734 79.20841797 -138.30927734 79.20841797 -138.4375 77.6875 C-138.51871094 76.70136719 -138.59992188 75.71523437 -138.68359375 74.69921875 C-139.29409038 69.49115495 -141.33269376 67.57785975 -145 64 C-147.71151323 59.93273016 -148.11915294 56.56348238 -148.5625 51.75 C-148.64628906 50.85796875 -148.73007812 49.9659375 -148.81640625 49.046875 C-148.87699219 48.37140625 -148.93757813 47.6959375 -149 47 C-149.33 47 -149.66 47 -150 47 C-149.96519531 48.19238281 -149.93039062 49.38476562 -149.89453125 50.61328125 C-149.86639247 52.17967342 -149.8390924 53.74608081 -149.8125 55.3125 C-149.77479492 56.49102539 -149.77479492 56.49102539 -149.73632812 57.69335938 C-149.72666016 58.45068359 -149.71699219 59.20800781 -149.70703125 59.98828125 C-149.6913208 60.68477783 -149.67561035 61.38127441 -149.65942383 62.09887695 C-150.10432955 64.58237578 -151.03357086 65.47101992 -153 67 C-153.66 67 -154.32 67 -155 67 C-155.12117188 67.60328125 -155.24234375 68.2065625 -155.3671875 68.828125 C-155.53476562 69.62734375 -155.70234375 70.4265625 -155.875 71.25 C-156.11863281 72.43335938 -156.11863281 72.43335938 -156.3671875 73.640625 C-156.99150075 75.96831144 -157.84838542 77.89031952 -159 80 C-159.99 79.67 -160.98 79.34 -162 79 C-162.33 74.38 -162.66 69.76 -163 65 C-164.65 64.67 -166.3 64.34 -168 64 C-169.66342837 62.33657163 -169.36048097 60.2174291 -169.5625 57.9375 C-169.68818359 56.55884766 -169.68818359 56.55884766 -169.81640625 55.15234375 C-169.87699219 54.44207031 -169.93757813 53.73179687 -170 53 C-170.24234375 53.54269531 -170.4846875 54.08539063 -170.734375 54.64453125 C-171.23710938 55.71767578 -171.23710938 55.71767578 -171.75 56.8125 C-172.23726563 57.87404297 -172.23726563 57.87404297 -172.734375 58.95703125 C-174 61 -174 61 -176 62.34375 C-178.85998042 64.71217129 -179.26987382 67.15204485 -180.25 70.6875 C-180.75273438 72.45673828 -180.75273438 72.45673828 -181.265625 74.26171875 C-181.50796875 75.16535156 -181.7503125 76.06898438 -182 77 C-182.99 76.67 -183.98 76.34 -185 76 C-185.66 71.38 -186.32 66.76 -187 62 C-188.65 61.67 -190.3 61.34 -192 61 C-192 58.33333333 -192 55.66666667 -192 53 C-192.5775 53.515625 -193.155 54.03125 -193.75 54.5625 C-196 56 -196 56 -198.1875 55.8125 C-200 55 -200 55 -201 53 C-201.33 53.66 -201.66 54.32 -202 55 C-202.66 55 -203.32 55 -204 55 C-204.28875 55.598125 -204.5775 56.19625 -204.875 56.8125 C-206 59 -206 59 -208 62 C-208.66613335 64.27538323 -208.66613335 64.27538323 -209.125 66.6875 C-209.29257812 67.49574219 -209.46015625 68.30398437 -209.6328125 69.13671875 C-209.75398438 69.75160156 -209.87515625 70.36648437 -210 71 C-211.32 71.33 -212.64 71.66 -214 72 C-217.58985244 59.64847382 -217.58985244 59.64847382 -216 53 C-216 52.34 -216 51.68 -216 51 C-216.969375 51.78375 -217.93875 52.5675 -218.9375 53.375 C-219.48277344 53.81585938 -220.02804687 54.25671875 -220.58984375 54.7109375 C-222.13266437 55.9666391 -222.13266437 55.9666391 -223 58 C-223.66 58 -224.32 58 -225 58 C-224.34 59.98 -223.68 61.96 -223 64 C-227.4771655 62.63197721 -229.19042726 60.65244456 -232 57 C-235.69418201 55.768606 -238.2056261 56.35567236 -242 57 C-242.07347656 57.90492188 -242.07347656 57.90492188 -242.1484375 58.828125 C-242.22320312 59.62734375 -242.29796875 60.4265625 -242.375 61.25 C-242.47941406 62.43335938 -242.47941406 62.43335938 -242.5859375 63.640625 C-243.01507113 66.085877 -243.78600638 67.84836903 -245 70 C-245.66 70 -246.32 70 -247 70 C-247.99 66.04 -248.98 62.08 -250 58 C-251.32 57.67 -252.64 57.34 -254 57 C-254.83144531 57.97453125 -254.83144531 57.97453125 -255.6796875 58.96875 C-256.40414062 59.8040625 -257.12859375 60.639375 -257.875 61.5 C-258.59429687 62.3353125 -259.31359375 63.170625 -260.0546875 64.03125 C-260.69664062 64.6809375 -261.33859375 65.330625 -262 66 C-262.66 66 -263.32 66 -264 66 C-263.48758893 59.97099313 -262.930215 53.97995357 -262 48 C-262.391875 48.804375 -262.78375 49.60875 -263.1875 50.4375 C-265 53 -265 53 -267.61328125 53.66015625 C-268.40089844 53.77230469 -269.18851563 53.88445312 -270 54 C-270.06058594 54.77085937 -270.12117187 55.54171875 -270.18359375 56.3359375 C-270.26738281 57.33882812 -270.35117187 58.34171875 -270.4375 59.375 C-270.55931641 60.87160156 -270.55931641 60.87160156 -270.68359375 62.3984375 C-271 65 -271 65 -272 67 C-272.99 67 -273.98 67 -275 67 C-275.23074219 66.08476562 -275.46148437 65.16953125 -275.69921875 64.2265625 C-276.02535156 63.03804687 -276.35148438 61.84953125 -276.6875 60.625 C-277.00074219 59.44164062 -277.31398438 58.25828125 -277.63671875 57.0390625 C-278.69202066 53.81686189 -278.69202066 53.81686189 -281.51953125 52.7734375 C-282.33808594 52.51820313 -283.15664063 52.26296875 -284 52 C-286.12508244 48.81237635 -286.5020163 46.73487777 -287 43 C-290.35421336 49.97676379 -290.04977105 55.41129361 -289 63 C-291.69646219 62.62565384 -292.79522397 62.22252008 -294.66796875 60.1875 C-295.16941406 59.465625 -295.67085937 58.74375 -296.1875 58 C-296.95126953 56.9171875 -296.95126953 56.9171875 -297.73046875 55.8125 C-298.14941406 55.214375 -298.56835938 54.61625 -299 54 C-300.06645115 52.70366379 -300.06645115 52.70366379 -302.5625 52.9375 C-303.366875 52.958125 -304.17125 52.97875 -305 53 C-306.59138085 57.17737474 -307.21278058 60.53160785 -307 65 C-307.99 65 -308.98 65 -310 65 C-310.30292969 64.09636719 -310.60585938 63.19273437 -310.91796875 62.26171875 C-311.33691406 61.08222656 -311.75585938 59.90273437 -312.1875 58.6875 C-312.59355469 57.51574219 -312.99960937 56.34398437 -313.41796875 55.13671875 C-315.20945899 51.5847023 -316.59680253 50.85628953 -320 49 C-321.3125 45.3125 -321.3125 45.3125 -322 42 C-323.32 42.66 -324.64 43.32 -326 44 C-327.65 42.68 -329.3 41.36 -331 40 C-330.6390625 41.01320312 -330.278125 42.02640625 -329.90625 43.0703125 C-329.43701581 44.42170697 -328.96829284 45.77327904 -328.5 47.125 C-328.26152344 47.79015625 -328.02304687 48.4553125 -327.77734375 49.140625 C-326.37291194 53.23354055 -325.72656186 56.61131792 -326 61 C-328.49361571 59.79618552 -330.68143083 58.54571278 -333 57 C-333 59.31 -333 61.62 -333 64 C-335.60924787 62.99138318 -336.79748847 62.33501908 -338.265625 59.90625 C-338.59046875 59.1121875 -338.9153125 58.318125 -339.25 57.5 C-339.58515625 56.7059375 -339.9203125 55.911875 -340.265625 55.09375 C-341 53 -341 53 -341 51 C-342.11375 50.9175 -343.2275 50.835 -344.375 50.75 C-348 50 -348 50 -349.375 48.3125 C-350.11947258 45.55795146 -350.61458231 42.82639643 -351 40 C-354.24637312 47.84540171 -354.58483027 52.92240542 -352 61 C-355.97138121 59.67620626 -358.43140718 58.33917067 -361 55 C-362.19191307 52.0507792 -363.13687664 49.06016463 -364 46 C-364.06058594 46.83144531 -364.12117187 47.66289062 -364.18359375 48.51953125 C-364.26738281 49.60621094 -364.35117187 50.69289062 -364.4375 51.8125 C-364.55931641 53.43091797 -364.55931641 53.43091797 -364.68359375 55.08203125 C-365 58 -365 58 -366 61 C-366.66 61 -367.32 61 -368 61 C-368.33 60.01 -368.66 59.02 -369 58 C-371.03277473 57.04882642 -371.03277473 57.04882642 -373.4375 56.4375 C-377.80269058 55.19730942 -377.80269058 55.19730942 -380 53 C-380.56520003 50.34462628 -380.73788198 47.70855287 -381 45 C-382.09506492 48.28519475 -382.09960608 50.73663415 -382.0625 54.1875 C-382.05347656 55.27417969 -382.04445313 56.36085937 -382.03515625 57.48046875 C-382.02355469 58.31191406 -382.01195312 59.14335937 -382 60 C-386 60 -386 60 -388.5 57.625 C-391.66056432 53.554428 -393.29591128 48.81714466 -395 44 C-395.06058594 44.66386719 -395.12117188 45.32773438 -395.18359375 46.01171875 C-395.89714286 53.53142857 -395.89714286 53.53142857 -396.5625 56.5625 C-397.24374278 60.35799551 -397.07540537 64.1543261 -397 68 C-400.72045079 66.75984974 -400.83001944 65.79127946 -402.625 62.4375 C-404.75392503 58.92089521 -404.75392503 58.92089521 -408.390625 57.40625 C-411.15850965 57.3902774 -411.15850965 57.3902774 -415 58 C-415.99 55.36 -416.98 52.72 -418 50 C-418.37649141 55.09832122 -417.10818776 58.82625254 -415 63.375 C-414.71382813 64.01566406 -414.42765625 64.65632813 -414.1328125 65.31640625 C-413.4317683 66.88207163 -412.71724882 68.44169156 -412 70 C-413.485 70.495 -413.485 70.495 -415 71 C-416.485 70.01 -416.485 70.01 -418 69 C-417.67 69.99 -417.34 70.98 -417 72 C-417.99 72.66 -418.98 73.32 -420 74 C-422.64 72.02 -425.28 70.04 -428 68 C-427.505 73.445 -427.505 73.445 -427 79 C-430.67742126 77.16128937 -431.5975402 76.63568217 -433.75 73.5 C-434.17796875 72.8915625 -434.6059375 72.283125 -435.046875 71.65625 C-436 70 -436 70 -436 68 C-437.98 68.495 -437.98 68.495 -440 69 C-444.875 63.25 -444.875 63.25 -446 61 C-446.33 63.64 -446.66 66.28 -447 69 C-450.3 68.34 -453.6 67.68 -457 67 C-455.845 68.134375 -454.69 69.26875 -453.5 70.4375 C-450.70543401 73.59608762 -449.53789248 75.44149618 -449.6875 79.6875 C-449.75324219 80.43644531 -449.81898438 81.18539062 -449.88671875 81.95703125 C-450.03723959 84.67159667 -449.14286237 86.57141747 -448 89 C-448 89.99 -448 90.98 -448 92 C-452.92737019 93.97094808 -456.78020872 94.1799928 -462 94 C-462.33 93.01 -462.66 92.02 -463 91 C-460.36 90.67 -457.72 90.34 -455 90 C-455.56589844 89.66226563 -456.13179687 89.32453125 -456.71484375 88.9765625 C-457.81505859 88.30753906 -457.81505859 88.30753906 -458.9375 87.625 C-460.03384766 86.96371094 -460.03384766 86.96371094 -461.15234375 86.2890625 C-463 85 -463 85 -464 83 C-464 84.65 -464 86.3 -464 88 C-468.05136227 88.63550781 -471.90255788 89.05661405 -476 89 C-474.53626953 89.70962891 -474.53626953 89.70962891 -473.04296875 90.43359375 C-461.39919394 96.37401606 -461.39919394 96.37401606 -459.625 101.8125 C-459.10296358 104.31208118 -459 106.43158947 -459 109 C-461.64 109.33 -464.28 109.66 -467 110 C-465.66195312 110.68835938 -465.66195312 110.68835938 -464.296875 111.390625 C-463.11437938 112.01002747 -461.93209902 112.62984099 -460.75 113.25 C-459.58984375 113.85328125 -458.4296875 114.4565625 -457.234375 115.078125 C-454.30631938 116.81798414 -452.25491658 118.47717254 -450 121 C-451.33333333 121 -452.66666667 121 -454 121 C-453.67 121.99 -453.34 122.98 -453 124 C-454.41633336 124.16947579 -455.83308533 124.33545507 -457.25 124.5 C-458.03890625 124.5928125 -458.8278125 124.685625 -459.640625 124.78125 C-462 125 -462 125 -466 125 C-465.32453125 125.32613281 -464.6490625 125.65226562 -463.953125 125.98828125 C-463.06109375 126.42527344 -462.1690625 126.86226563 -461.25 127.3125 C-459.92742187 127.95638672 -459.92742187 127.95638672 -458.578125 128.61328125 C-456.18225473 129.90196905 -454.16082474 131.36075365 -452 133 C-449.85266073 133.70514846 -449.85266073 133.70514846 -448 134 C-448 134.99 -448 135.98 -448 137 C-448.52207031 137.27972656 -449.04414063 137.55945313 -449.58203125 137.84765625 C-455.9039163 141.29092464 -461.96176271 145.08361058 -468 149 C-466.700625 149.144375 -465.40125 149.28875 -464.0625 149.4375 C-460.125 149.875 -460.125 149.875 -459 151 C-458.67 150.34 -458.34 149.68 -458 149 C-454.21531279 147.45171887 -451.08218297 146.75987159 -447 147 C-446.67 147.66 -446.34 148.32 -446 149 C-441.38 148.67 -436.76 148.34 -432 148 C-433.23277549 152.93110198 -435.14957679 153.87153114 -439 157 C-440.09658936 160.28976808 -439.79953138 161.71303767 -439 165 C-442.465 167.475 -442.465 167.475 -446 170 C-440.25405642 168.85081128 -436.02138262 167.0819979 -431.078125 163.92578125 C-428.58564239 162.81540836 -427.51110903 163.06681759 -425 164 C-425.34933594 164.60328125 -425.69867188 165.2065625 -426.05859375 165.828125 C-426.51363281 166.62734375 -426.96867187 167.4265625 -427.4375 168.25 C-427.88996094 169.03890625 -428.34242188 169.8278125 -428.80859375 170.640625 C-429.89311602 172.78833468 -430.53148716 174.65205061 -431 177 C-430.33613281 176.7834375 -429.67226563 176.566875 -428.98828125 176.34375 C-427.66376953 175.92609375 -427.66376953 175.92609375 -426.3125 175.5 C-425.00732422 175.08234375 -425.00732422 175.08234375 -423.67578125 174.65625 C-421.00608323 174.00149195 -418.73603316 173.88168505 -416 174 C-416.83306529 178.72238374 -419.7960762 180.740264 -423.375 183.625 C-423.96539062 184.11484375 -424.55578125 184.6046875 -425.1640625 185.109375 C-427.70824508 187.20660658 -430.25502243 189.17001495 -433 191 C-423.73328887 190.03158694 -416.26656145 187.23994603 -408 183 C-408.58340808 186.84518964 -410.37342371 188.90315761 -412.875 191.8125 C-416.75924951 196.53207198 -420 200.66243348 -420 207 C-419.401875 206.505 -418.80375 206.01 -418.1875 205.5 C-416 204 -416 204 -413 204 C-413 207.66666667 -413 211.33333333 -413 215 C-412.46375 214.525625 -411.9275 214.05125 -411.375 213.5625 C-409 212 -409 212 -406.1875 211.625 C-402.42734011 210.88771375 -400.46647799 209.4046548 -397.515625 207.05859375 C-396 206 -396 206 -394 206 C-394.20496094 206.65226563 -394.40992188 207.30453125 -394.62109375 207.9765625 C-398.01691217 218.13158441 -398.01691217 218.13158441 -395 228 C-395.3125 230.375 -395.3125 230.375 -396 232 C-402.71987642 230.05870237 -402.71987642 230.05870237 -405 227 C-405.07421875 224.73828125 -405.07421875 224.73828125 -404.6875 222.3125 C-404.56761719 221.50425781 -404.44773437 220.69601562 -404.32421875 219.86328125 C-404.21722656 219.24839844 -404.11023438 218.63351562 -404 218 C-405.67145202 219.32732954 -407.33686649 220.66226218 -409 222 C-410.010625 222.78375 -411.02125 223.5675 -412.0625 224.375 C-414.37592293 226.44231411 -415.65660858 227.79506002 -417.25 230.3125 C-417.8275 231.199375 -418.405 232.08625 -419 233 C-419.66 233 -420.32 233 -421 233 C-421.09706112 226.88514973 -420.77040851 221.06696699 -420 215 C-420.59167969 215.27714844 -421.18335938 215.55429687 -421.79296875 215.83984375 C-429.64147627 219.43760984 -429.64147627 219.43760984 -434 220 C-433.54658132 218.72740489 -433.08704773 217.45698757 -432.625 216.1875 C-432.24214844 215.12595703 -432.24214844 215.12595703 -431.8515625 214.04296875 C-431 212 -431 212 -429 209 C-428.87625 207.88625 -428.7525 206.7725 -428.625 205.625 C-427.93281663 201.61033644 -426.74960129 199.92699492 -424 197 C-424.78375 197.33 -425.5675 197.66 -426.375 198 C-430.2573317 199.07098806 -433.39842713 199.09468679 -437.38671875 199.00390625 C-441.31174999 198.99803924 -445.10995699 199.49805897 -449 200 C-447.44879203 195.96501261 -444.83438014 193.96684209 -441.5 191.3125 C-440.5203125 190.52488281 -439.540625 189.73726562 -438.53125 188.92578125 C-436 187 -436 187 -434 186 C-435.7015625 186.0309375 -435.7015625 186.0309375 -437.4375 186.0625 C-441 186 -441 186 -442 185 C-441.71269945 182.66055264 -441.38063221 180.3260857 -441 178 C-441.5775 178.309375 -442.155 178.61875 -442.75 178.9375 C-444.88371067 179.9450856 -446.6614904 180.68819872 -449 181 C-449.99 180.01 -449.99 180.01 -451 179 C-453.89967757 178.69324768 -456.71783178 178.48826629 -459.625 178.375 C-460.82769531 178.31699219 -460.82769531 178.31699219 -462.0546875 178.2578125 C-464.03607556 178.16346069 -466.01800645 178.08063785 -468 178 C-467.61328125 176.06811523 -467.61328125 176.06811523 -467 174 C-465.1875 172.91015625 -465.1875 172.91015625 -463 172.0625 C-460.82188857 171.12143778 -460.82188857 171.12143778 -459 170 C-458.32041397 167.60280568 -458.32041397 167.60280568 -458 165 C-456.15745625 162.77949856 -454.13714962 160.95526454 -452 159 C-460.50971287 160.8376794 -460.50971287 160.8376794 -468.5 164.1875 C-472 166 -472 166 -476 166 C-475.45388137 162.17716957 -473.76181385 160.58920048 -471 158 C-470.67 157.34 -470.34 156.68 -470 156 C-475.94 156.99 -475.94 156.99 -482 158 C-480.97664493 153.90657974 -480.21539544 152.82686465 -477.4375 149.875 C-474.74006645 147.34582141 -474.74006645 147.34582141 -474 144 C-478.29 143.34 -482.58 142.68 -487 142 C-487 141.01 -487 140.02 -487 139 C-486.32453125 138.86722656 -485.6490625 138.73445312 -484.953125 138.59765625 C-483.61507812 138.33275391 -483.61507812 138.33275391 -482.25 138.0625 C-481.36828125 137.88847656 -480.4865625 137.71445312 -479.578125 137.53515625 C-477.36764947 137.07631512 -475.18487932 136.56663926 -473 136 C-480.24493364 132.12480294 -485.03385771 131.87189706 -493 133 C-492.73250896 129.76038627 -491.89269676 128.90059638 -489.453125 126.640625 C-487.86757813 125.45726562 -487.86757813 125.45726562 -486.25 124.25 C-485.20328125 123.45078125 -484.1565625 122.6515625 -483.078125 121.828125 C-479.9536264 119.97245832 -478.54120138 119.55407094 -475 120 C-476.54123133 116.91753734 -479.00332102 116.7547539 -482.1875 115.625 C-491.19886364 112.25811688 -491.19886364 112.25811688 -495 109 C-495 108.01 -495 107.02 -495 106 C-493.39536551 106.31008884 -491.79130769 106.62316287 -490.1875 106.9375 C-489.29417969 107.11152344 -488.40085937 107.28554688 -487.48046875 107.46484375 C-485 108 -485 108 -482 109 C-485.96 107.02 -489.92 105.04 -494 103 C-494 102.01 -494 101.02 -494 100 C-491.25048307 99.77787745 -488.50134388 99.57184412 -485.75 99.375 C-484.97269531 99.31054688 -484.19539063 99.24609375 -483.39453125 99.1796875 C-476.27568856 98.69292903 -476.27568856 98.69292903 -473 101 C-473.495 100.505 -473.495 100.505 -474 100 C-474.51046875 99.24332031 -475.0209375 98.48664063 -475.546875 97.70703125 C-478.70226835 94.22504464 -482.03787076 92.64844709 -486.25 90.6875 C-486.99507812 90.32849609 -487.74015625 89.96949219 -488.5078125 89.59960938 C-490.33325578 88.72199241 -492.1659342 87.85945177 -494 87 C-494 86.34 -494 85.68 -494 85 C-492.0509375 84.7834375 -492.0509375 84.7834375 -490.0625 84.5625 C-489.2478125 84.46839844 -488.433125 84.37429687 -487.59375 84.27734375 C-485.88824348 84.09497784 -484.17948484 83.94048733 -482.46875 83.81640625 C-481.6746875 83.75324219 -480.880625 83.69007813 -480.0625 83.625 C-479.33160156 83.57601562 -478.60070312 83.52703125 -477.84765625 83.4765625 C-475.59452487 83.1145259 -475.59452487 83.1145259 -474 80 C-473.97637027 76.78886461 -473.97637027 76.78886461 -474.375 73.3125 C-474.48585938 72.13300781 -474.59671875 70.95351562 -474.7109375 69.73828125 C-474.85402344 68.38283203 -474.85402344 68.38283203 -475 67 C-473.515 66.01 -473.515 66.01 -472 65 C-470.8274869 65.95117134 -469.66212985 66.91117009 -468.5 67.875 C-467.8503125 68.40867187 -467.200625 68.94234375 -466.53125 69.4921875 C-466.0259375 69.98976563 -465.520625 70.48734375 -465 71 C-465 71.66 -465 72.32 -465 73 C-463.68 73.66 -462.36 74.32 -461 75 C-461.309375 74.154375 -461.61875 73.30875 -461.9375 72.4375 C-463.01538821 68.9502146 -463.56581304 65.61822465 -464 62 C-461.09907498 60.06604999 -460.10325263 59.69868059 -456.8125 59.375 C-455.554375 59.25125 -454.29625 59.1275 -453 59 C-452.90912109 58.05640625 -452.90912109 58.05640625 -452.81640625 57.09375 C-452.29004493 51.71676663 -451.69453543 46.35784473 -451 41 C-450.01 40.67 -449.02 40.34 -448 40 C-447.51801537 41.24891614 -447.03954323 42.49918808 -446.5625 43.75 C-446.29566406 44.44609375 -446.02882813 45.1421875 -445.75390625 45.859375 C-445 48 -445 48 -444.5625 50.1875 C-444.2840625 51.0846875 -444.2840625 51.0846875 -444 52 C-441.50965614 53.29660434 -441.50965614 53.29660434 -439 54 C-439 54.66 -439 55.32 -439 56 C-438.01 56.33 -437.02 56.66 -436 57 C-436 56.01 -436 55.02 -436 54 C-436 53.34 -436 52.68 -436 52 C-435.113125 52.309375 -434.22625 52.61875 -433.3125 52.9375 C-430.53290845 53.8290671 -427.86863625 54.49377007 -425 55 C-425 52.11564062 -425.12290556 49.57820832 -425.5 46.75 C-425.665 45.5125 -425.83 44.275 -426 43 C-425.34 42.67 -424.68 42.34 -424 42 C-422.90482155 38.81131715 -421.93667145 35.61750618 -421.03125 32.37109375 C-420.4140625 30.34375 -420.4140625 30.34375 -419 27 C-417.68 26.67 -416.36 26.34 -415 26 C-414.505 31.445 -414.505 31.445 -414 37 C-412.02 37.495 -412.02 37.495 -410 38 C-407.75 40.5625 -407.75 40.5625 -406 43 C-405.16788724 37.96145894 -404.8921466 33.1874338 -404.9375 28.0625 C-404.94201172 27.37865234 -404.94652344 26.69480469 -404.95117188 25.99023438 C-404.9628044 24.32678396 -404.98073306 22.6633795 -405 21 C-402.07698987 21.3340583 -401.13827306 21.83942483 -399.18359375 24.109375 C-398.60738281 24.98078125 -398.03117187 25.8521875 -397.4375 26.75 C-396.85871094 27.61109375 -396.27992188 28.4721875 -395.68359375 29.359375 C-394.07599411 31.88080738 -392.53402188 34.43338167 -391 37 C-390.34 37.99 -389.68 38.98 -389 40 C-388.773125 38.96875 -388.54625 37.9375 -388.3125 36.875 C-387.05242964 32.55727638 -385.34349548 30.03954135 -382 27 C-379 26.6875 -379 26.6875 -376 28 C-373.15250307 31.01544581 -371.30925028 34.07224915 -370 38 C-369.34 32.39 -368.68 26.78 -368 21 C-366.515 20.505 -366.515 20.505 -365 20 C-364.49339844 21.33804688 -364.49339844 21.33804688 -363.9765625 22.703125 C-363.30753906 24.45882812 -363.30753906 24.45882812 -362.625 26.25 C-362.18414062 27.41015625 -361.74328125 28.5703125 -361.2890625 29.765625 C-360.29409145 32.26209781 -359.25589954 34.62904947 -358 37 C-355.54399352 29.39353334 -353.35258896 21.88416983 -352 14 C-350.08984375 14.6484375 -350.08984375 14.6484375 -348 16 C-347.12890625 18.5390625 -347.12890625 18.5390625 -346.5625 21.625 C-345.31304425 27.38637928 -343.40325315 31.21704963 -340 36 C-340.165 34.88625 -340.33 33.7725 -340.5 32.625 C-341.12094505 27.74489662 -341.09057874 22.91138052 -341 18 C-340.01 18 -339.02 18 -338 18 C-336.60546875 20.15234375 -336.60546875 20.15234375 -335.1875 22.9375 C-332.93008105 27.190022 -332.93008105 27.190022 -328.625 29.125 C-327.75875 29.08375 -326.8925 29.0425 -326 29 C-325.87882813 28.40832031 -325.75765625 27.81664062 -325.6328125 27.20703125 C-324.73255357 22.96196415 -323.79543379 18.97560339 -322 15 C-321.34 15 -320.68 15 -320 15 C-319.71125 16.155 -319.4225 17.31 -319.125 18.5 C-318.94066406 19.23089844 -318.75632812 19.96179688 -318.56640625 20.71484375 C-318.20762492 22.16234085 -317.85986595 23.61265218 -317.52734375 25.06640625 C-316.46098508 29.64547584 -314.95995797 33.72372807 -313 38 C-312.01 35.36 -311.02 32.72 -310 30 C-306.33759908 31.56960039 -305.06096354 32.93903646 -302 36 C-303.98 27.09 -303.98 27.09 -306 18 C-301.47052984 19.13236754 -301.1122196 19.73590828 -298.5625 23.375 C-296.02661727 26.81265137 -293.97577643 29.19282889 -290 31 C-289.80664062 30.40832031 -289.61328125 29.81664062 -289.4140625 29.20703125 C-288.05585281 25.0853355 -286.67949415 21.0049476 -285 17 C-283.68 17 -282.36 17 -281 17 C-280.96132813 18.30324219 -280.96132813 18.30324219 -280.921875 19.6328125 C-280.48259235 28.58118219 -280.48259235 28.58118219 -276 36 C-275.67 36.99 -275.34 37.98 -275 39 C-274.7834375 37.576875 -274.7834375 37.576875 -274.5625 36.125 C-274.046875 35.09375 -273.53125 34.0625 -273 33 C-271.00390625 32.5078125 -271.00390625 32.5078125 -268.625 32.25 C-266.18469537 31.98171296 -266.18469537 31.98171296 -264 31 C-261.96670824 27.86213623 -260.97706893 24.58840197 -260 21 C-259.67 20.01 -259.34 19.02 -259 18 C-258.01 18 -257.02 18 -256 18 C-254.4289934 21.1420132 -254.57261135 24.54309414 -254.375 28 C-254.30744507 29.14553345 -254.30744507 29.14553345 -254.23852539 30.31420898 C-253.9495982 35.99003651 -254.19475274 41.36326916 -255 47 C-254.401875 46.34 -253.80375 45.68 -253.1875 45 C-251 43 -251 43 -248 43 C-247.67 40.69 -247.34 38.38 -247 36 C-244.525 35.505 -244.525 35.505 -242 35 C-239.69 37.64 -237.38 40.28 -235 43 C-235.33 40.03 -235.66 37.06 -236 34 C-234.68 33.67 -233.36 33.34 -232 33 C-229.65947694 29.45577937 -227.67916306 26.24476913 -227 22 C-225.35 21.67 -223.7 21.34 -222 21 C-222 25.62 -222 30.24 -222 35 C-220.68 35.33 -219.36 35.66 -218 36 C-216.25 39.0625 -216.25 39.0625 -215 42 C-213.74845634 40.29279724 -212.49884128 38.58418058 -211.25 36.875 C-210.15365234 35.37646484 -210.15365234 35.37646484 -209.03515625 33.84765625 C-207.50061433 31.70047571 -206.06717459 29.55785277 -204.6875 27.3125 C-203.8521875 26.1678125 -203.8521875 26.1678125 -203 25 C-202.01 25 -201.02 25 -200 25 C-200 27.31 -200 29.62 -200 32 C-199.67386719 31.4225 -199.34773438 30.845 -199.01171875 30.25 C-198.57472656 29.5075 -198.13773437 28.765 -197.6875 28 C-197.25824219 27.2575 -196.82898438 26.515 -196.38671875 25.75 C-195.92910156 25.1725 -195.47148437 24.595 -195 24 C-194.01 24 -193.02 24 -192 24 C-192.01740234 25.15628906 -192.01740234 25.15628906 -192.03515625 26.3359375 C-192.04417969 27.33882812 -192.05320312 28.34171875 -192.0625 29.375 C-192.07990234 30.87160156 -192.07990234 30.87160156 -192.09765625 32.3984375 C-192.18006602 34.98432453 -192.18006602 34.98432453 -191 37 C-187.87709365 36.51421457 -185.00419641 36.0013988 -182 35 C-182 34.34 -182 33.68 -182 33 C-180.68 33 -179.36 33 -178 33 C-178 34.65 -178 36.3 -178 38 C-174.04 38.495 -174.04 38.495 -170 39 C-169.731875 38.113125 -169.46375 37.22625 -169.1875 36.3125 C-168.06916258 33.19292719 -166.922798 30.6919172 -165 28 C-164.01 27.67 -163.02 27.34 -162 27 C-161.95101563 27.90621094 -161.90203125 28.81242187 -161.8515625 29.74609375 C-161.42420873 36.70901291 -160.74718596 43.24421429 -159 50 C-157.57270637 48.80663174 -157.57270637 48.80663174 -157.97265625 45.359375 C-158.01080732 43.05023149 -158.06271815 40.74215965 -158.12695312 38.43359375 C-158.18997639 34.1405975 -157.99928773 30.92017203 -156 27 C-155.34 27 -154.68 27 -154 27 C-153.73445313 27.60328125 -153.46890625 28.2065625 -153.1953125 28.828125 C-152.84210938 29.62734375 -152.48890625 30.4265625 -152.125 31.25 C-151.77695312 32.03890625 -151.42890625 32.8278125 -151.0703125 33.640625 C-150.09586095 35.78868608 -149.07013571 37.89829202 -148 40 C-147.01 40 -146.02 40 -145 40 C-143.59123604 38.30860001 -142.5271923 36.50481911 -141.37890625 34.62890625 C-139.70005429 32.6456732 -138.52499557 32.38062566 -136 32 C-135.0672582 36.099361 -134.71174738 40.12043288 -134.4375 44.3125 C-134.31181641 46.19388672 -134.31181641 46.19388672 -134.18359375 48.11328125 C-134.12300781 49.06589844 -134.06242187 50.01851562 -134 51 C-132.7934375 51.185625 -132.7934375 51.185625 -131.5625 51.375 C-130.716875 51.58125 -129.87125 51.7875 -129 52 C-128.67 52.66 -128.34 53.32 -128 54 C-127.34 53.01 -126.68 52.02 -126 51 C-123.23609263 53.40339772 -122.95934081 54.16263678 -122 58 C-121.34 54.04 -120.68 50.08 -120 46 C-119.34 46 -118.68 46 -118 46 C-117.731875 45.2575 -117.46375 44.515 -117.1875 43.75 C-116.04723249 41.10938051 -114.90619694 39.14447156 -113 37 C-112.34 37 -111.68 37 -111 37 C-106.98262828 47.0792987 -106.98262828 47.0792987 -107.0625 51.3125 C-106.9667202 55.4310312 -104.78871434 57.07184995 -102 60 C-102 56.04 -102 52.08 -102 48 C-101.13375 48 -100.2675 48 -99.375 48 C-94.45405608 46.54194254 -92.69186502 43.19052746 -90 39 C-88.0625 39.375 -88.0625 39.375 -86 40 C-84.49843126 43.00313748 -84.90718796 45.79067522 -84.9375 49.125 C-84.94652344 50.40632813 -84.95554687 51.68765625 -84.96484375 53.0078125 C-84.98224609 54.48894531 -84.98224609 54.48894531 -85 56 C-84.67 54.02 -84.34 52.04 -84 50 C-83.67 50.66 -83.34 51.32 -83 52 C-82.34 52 -81.68 52 -81 52 C-80.01 54.97 -79.02 57.94 -78 61 C-77.67 61 -77.34 61 -77 61 C-76.86464844 60.35933594 -76.72929687 59.71867187 -76.58984375 59.05859375 C-74.93672311 52.4164144 -72.5502224 48.12482438 -67 44 C-65.515 43.505 -65.515 43.505 -64 43 C-61.75393573 44.77444972 -61.04918998 45.58352485 -60.70703125 48.48046875 C-60.75923828 49.82044922 -60.75923828 49.82044922 -60.8125 51.1875 C-60.83957031 52.08855469 -60.86664062 52.98960937 -60.89453125 53.91796875 C-60.92933594 54.60503906 -60.96414063 55.29210937 -61 56 C-59.02 55.01 -57.04 54.02 -55 53 C-54.67 53.66 -54.34 54.32 -54 55 C-53.45730469 54.4225 -52.91460938 53.845 -52.35546875 53.25 C-51.64003906 52.5075 -50.92460938 51.765 -50.1875 51 C-49.47980469 50.2575 -48.77210938 49.515 -48.04296875 48.75 C-46 47 -46 47 -43 47 C-43 46.34 -43 45.68 -43 45 C-41.66666667 43.66666667 -40.33333333 42.33333333 -39 41 C-37.63178949 39.02369593 -36.29048808 37.02790984 -35 35 C-36.5159375 35.495 -36.5159375 35.495 -38.0625 36 C-41.75479911 37.07001321 -45.15248207 37.15704155 -49 37 C-49 36.01 -49 35.02 -49 34 C-51.31 33.67 -53.62 33.34 -56 33 C-56.30646032 30.00292193 -56.37066159 28.50254119 -54.55078125 26.03515625 C-48.54334558 20.74064488 -42.14101344 16.21455176 -35.5 11.75 C-34.1838269 10.86453491 -34.1838269 10.86453491 -32.84106445 9.96118164 C-21.96355613 2.79829026 -13.37102786 -2.33810323 0 0 Z M-180 39 C-179 41 -179 41 -179 41 Z M-59 74 C-58 77 -58 77 -58 77 Z M-60 77 C-59 79 -59 79 -59 79 Z " fill="#FFFFFF" transform="translate(584,166)"/>
<path d="M0 0 C-0.63872387 3.37831058 -1.94564667 5.69368995 -3.8125 8.5625 C-6.6257612 13.09871543 -8.44218205 17.57222158 -10.04296875 22.65234375 C-11.0542489 25.13307588 -11.90254404 26.35895866 -14 28 C-17.375 29.0625 -17.375 29.0625 -21 29 C-24.59789969 25.87139157 -25.70400941 23.99243903 -27.0625 19.4375 C-26.98319021 15.07546162 -25.96063946 14.14151454 -23 11 C-20.78020049 9.2791956 -18.44976375 7.78913206 -16.0625 6.3125 C-15.45470703 5.92255859 -14.84691406 5.53261719 -14.22070312 5.13085938 C-9.35891051 2.06273782 -5.78898351 0 0 0 Z " fill="#FFFFFF" transform="translate(409,675)"/>
<path d="M0 0 C1.32 0.33 2.64 0.66 4 1 C3.67 1.66 3.34 2.32 3 3 C2.01 2.67 1.02 2.34 0 2 C0 1.34 0 0.68 0 0 Z " fill="#FFFFFF" transform="translate(877,549)"/>
<path d="M0 0 C0.66 0 1.32 0 2 0 C1.67 0.99 1.34 1.98 1 3 C0.34 2.34 -0.32 1.68 -1 1 C-0.67 0.67 -0.34 0.34 0 0 Z " fill="#FFFFFF" transform="translate(874,548)"/>
<path d="M0 0 C0.66 0.33 1.32 0.66 2 1 C1.01 1 0.02 1 -1 1 C-0.67 0.67 -0.34 0.34 0 0 Z " fill="#FFFFFF" transform="translate(311,196)"/>
<path d="M0 0 C0 3 0 3 0 3 Z " fill="#FFFFFF" transform="translate(354,192)"/>
<path d="M0 0 C0.99 0.495 0.99 0.495 2 1 C1.01 1.495 1.01 1.495 0 2 C0 1.34 0 0.68 0 0 Z " fill="#FFFFFF" transform="translate(468,203)"/>
<path d="M0 0 C0.99 0.495 0.99 0.495 2 1 C1.01 1.495 1.01 1.495 0 2 C0 1.34 0 0.68 0 0 Z " fill="#FFFFFF" transform="translate(372,200)"/>
<path d="" fill="#FFFFFF" transform="translate(0,0)"/>
<path d="" fill="#FFFFFF" transform="translate(0,0)"/>
<path d="" fill="#FFFFFF" transform="translate(0,0)"/>
<path d="" fill="#FFFFFF" transform="translate(0,0)"/>
<path d="" fill="#FFFFFF" transform="translate(0,0)"/>
<path d="M0 0 C2 1 2 1 2 1 Z " fill="#FFFFFF" transform="translate(834,436)"/>
<path d="M0 0 C2 1 2 1 2 1 Z " fill="#FFFFFF" transform="translate(802,411)"/>
<path d="" fill="#FFFFFF" transform="translate(0,0)"/>
<path d="" fill="#FFFFFF" transform="translate(0,0)"/>
<path d="" fill="#FFFFFF" transform="translate(0,0)"/>
<path d="" fill="#FFFFFF" transform="translate(0,0)"/>
<path d="" fill="#FFFFFF" transform="translate(0,0)"/>
<path d="" fill="#FFFFFF" transform="translate(0,0)"/>
<path d="" fill="#FFFFFF" transform="translate(0,0)"/>
<path d="" fill="#FFFFFF" transform="translate(0,0)"/>
<path d="" fill="#FFFFFF" transform="translate(0,0)"/>
<path d="" fill="#FFFFFF" transform="translate(0,0)"/>
<path d="" fill="#FFFFFF" transform="translate(0,0)"/>
<path d="" fill="#FFFFFF" transform="translate(0,0)"/>
<path d="" fill="#FFFFFF" transform="translate(0,0)"/>
<path d="" fill="#FFFFFF" transform="translate(0,0)"/>
<path d="" fill="#FFFFFF" transform="translate(0,0)"/>
<path d="" fill="#FFFFFF" transform="translate(0,0)"/>
<path d="" fill="#FFFFFF" transform="translate(0,0)"/>
<path d="" fill="#FFFFFF" transform="translate(0,0)"/>
<path d="" fill="#FFFFFF" transform="translate(0,0)"/>
<path d="" fill="#FFFFFF" transform="translate(0,0)"/>
<path d="" fill="#FFFFFF" transform="translate(0,0)"/>
<path d="" fill="#FFFFFF" transform="translate(0,0)"/>
<path d="" fill="#FFFFFF" transform="translate(0,0)"/>
<path d="" fill="#FFFFFF" transform="translate(0,0)"/>
<path d="" fill="#FFFFFF" transform="translate(0,0)"/>
<path d="" fill="#FFFFFF" transform="translate(0,0)"/>
<path d="" fill="#FFFFFF" transform="translate(0,0)"/>
<path d="" fill="#FFFFFF" transform="translate(0,0)"/>
<path d="" fill="#FFFFFF" transform="translate(0,0)"/>
<path d="" fill="#FFFFFF" transform="translate(0,0)"/>
<path d="" fill="#FFFFFF" transform="translate(0,0)"/>
<path d="" fill="#FFFFFF" transform="translate(0,0)"/>
<path d="" fill="#FFFFFF" transform="translate(0,0)"/>
<path d="" fill="#FFFFFF" transform="translate(0,0)"/>
<path d="" fill="#FFFFFF" transform="translate(0,0)"/>
<path d="" fill="#FFFFFF" transform="translate(0,0)"/>
<path d="" fill="#FFFFFF" transform="translate(0,0)"/>
<path d="" fill="#FFFFFF" transform="translate(0,0)"/>
<path d="" fill="#FFFFFF" transform="translate(0,0)"/>
<path d="" fill="#FFFFFF" transform="translate(0,0)"/>
<path d="" fill="#FFFFFF" transform="translate(0,0)"/>
<path d="" fill="#FFFFFF" transform="translate(0,0)"/>
<path d="" fill="#FFFFFF" transform="translate(0,0)"/>
<path d="" fill="#FFFFFF" transform="translate(0,0)"/>
<path d="" fill="#FFFFFF" transform="translate(0,0)"/>
<path d="" fill="#FFFFFF" transform="translate(0,0)"/>
<path d="" fill="#FFFFFF" transform="translate(0,0)"/>
<path d="" fill="#FFFFFF" transform="translate(0,0)"/>
<path d="" fill="#FFFFFF" transform="translate(0,0)"/>
<path d="" fill="#FFFFFF" transform="translate(0,0)"/>
<path d="" fill="#FFFFFF" transform="translate(0,0)"/>
<path d="" fill="#FFFFFF" transform="translate(0,0)"/>
<path d="" fill="#FFFFFF" transform="translate(0,0)"/>
<path d="" fill="#FFFFFF" transform="translate(0,0)"/>
<path d="" fill="#FFFFFF" transform="translate(0,0)"/>
<path d="" fill="#FFFFFF" transform="translate(0,0)"/>
<path d="" fill="#FFFFFF" transform="translate(0,0)"/>
<path d="" fill="#FFFFFF" transform="translate(0,0)"/>
<path d="" fill="#FFFFFF" transform="translate(0,0)"/>
<path d="" fill="#FFFFFF" transform="translate(0,0)"/>
<path d="" fill="#FFFFFF" transform="translate(0,0)"/>
<path d="" fill="#FFFFFF" transform="translate(0,0)"/>
<path d="" fill="#FFFFFF" transform="translate(0,0)"/>
<path d="" fill="#FFFFFF" transform="translate(0,0)"/>
<path d="" fill="#FFFFFF" transform="translate(0,0)"/>
<path d="" fill="#FFFFFF" transform="translate(0,0)"/>
<path d="" fill="#FFFFFF" transform="translate(0,0)"/>
<path d="" fill="#FFFFFF" transform="translate(0,0)"/>
<path d="" fill="#FFFFFF" transform="translate(0,0)"/>
</svg>
