<?xml version="1.0" encoding="UTF-8"?>
<svg id="Layer_1" data-name="Layer 1" xmlns="http://www.w3.org/2000/svg" viewBox="0 0 646.58 800">
  <defs>
    <style>
      .cls-1 {
        fill: #bfa872;
      }

      .cls-2 {
        fill: #8b7444;
      }

      .cls-3 {
        fill: #d9c38c;
      }

      .cls-4 {
        fill: #fff;
        opacity: 0;
      }

      .cls-5 {
        fill: #231f20;
      }

      .cls-6 {
        fill: #37d660;
      }

      .cls-7 {
        fill: #a58e5b;
      }
    </style>
  </defs>
  <path id="SVGCleanerId_0" data-name="SVGCleanerId 0" class="cls-6" d="M400.08,153.5c-135.57,0-246.5,110.92-246.5,246.5s110.93,246.5,246.5,246.5,246.5-110.93,246.5-246.5-109.69-246.5-246.5-246.5ZM513.46,509.69c-4.91,7.4-13.54,9.87-20.95,4.93-57.93-35.74-130.65-43.13-216.9-23.4-8.65,2.45-16.03-3.72-18.49-11.1-2.47-8.63,3.7-16.03,11.09-18.49,93.66-20.95,175.01-12.32,239.1,27.11,8.61,3.7,9.86,13.56,6.14,20.95h0ZM543.05,441.9c-6.16,8.63-17.26,12.32-25.88,6.16-66.55-40.67-167.62-53-245.27-28.34-9.84,2.46-20.95-2.47-23.42-12.32-2.46-9.86,2.47-20.96,12.33-23.42,89.97-27.11,200.9-13.56,277.31,33.28,7.39,3.7,11.09,16.03,4.93,24.66ZM577.55,366.72c-6.14,8.62-20.95,12.33-32.04,6.14-78.88-46.82-210.75-51.75-285.93-28.34-12.34,3.72-24.66-3.69-28.34-14.78-3.72-12.32,3.69-24.65,14.77-28.34,87.51-25.88,231.73-20.97,322.91,33.28,11.09,6.16,14.81,20.93,8.62,32.03h0s0,.01,0,.01Z"/>
  <g id="Layer_2" data-name="Layer 2">
    <ellipse class="cls-5" cx="391.44" cy="398.91" rx="213.59" ry="148.45"/>
  </g>
  <path id="SVGCleanerId_0-2" data-name="SVGCleanerId 0-2" class="cls-1" d="M400.08,153.5c-135.57,0-246.5,110.92-246.5,246.5s110.93,246.5,246.5,246.5,246.5-110.93,246.5-246.5-109.69-246.5-246.5-246.5ZM513.46,509.69c-4.91,7.4-13.54,9.87-20.95,4.93-57.93-35.74-130.65-43.13-216.9-23.4-8.65,2.45-16.03-3.72-18.49-11.1-2.47-8.63,3.7-16.03,11.09-18.49,93.66-20.95,175.01-12.32,239.1,27.11,8.61,3.7,9.86,13.56,6.14,20.95h0ZM543.05,441.9c-6.16,8.63-17.26,12.32-25.88,6.16-66.55-40.67-167.62-53-245.27-28.34-9.84,2.46-20.95-2.47-23.42-12.32-2.46-9.86,2.47-20.96,12.33-23.42,89.97-27.11,200.9-13.56,277.31,33.28,7.39,3.7,11.09,16.03,4.93,24.66ZM577.55,366.72c-6.14,8.62-20.95,12.33-32.04,6.14-78.88-46.82-210.75-51.75-285.93-28.34-12.34,3.72-24.66-3.69-28.34-14.78-3.72-12.32,3.69-24.65,14.77-28.34,87.51-25.88,231.73-20.97,322.91,33.28,11.09,6.16,14.81,20.93,8.62,32.03h0s0,.01,0,.01Z"/>
  <path class="cls-7" d="M371.92,347.61c-94.38,0-176.09,35.36-215.85,86.92,16.92,119.36,120.14,211.97,244,211.97,89.47,0,168.19-48.33,211.38-120.14,1.39-6.82,2.16-13.75,2.16-20.82,0-87.22-108.2-157.92-241.68-157.92h0ZM513.46,509.69c-4.91,7.4-13.54,9.87-20.95,4.93-57.93-35.74-130.65-43.13-216.9-23.4-8.65,2.45-16.03-3.72-18.49-11.1-2.47-8.63,3.7-16.03,11.09-18.49,93.66-20.95,175.01-12.32,239.1,27.11,8.61,3.7,9.86,13.56,6.14,20.95h0ZM543.05,441.9c-6.16,8.63-17.26,12.32-25.88,6.16-66.55-40.67-167.62-53-245.27-28.34-9.84,2.46-20.95-2.47-23.42-12.32-2.46-9.86,2.47-20.96,12.33-23.42,89.97-27.11,200.9-13.56,277.31,33.28,7.39,3.7,11.09,16.03,4.93,24.66Z"/>
  <path class="cls-3" d="M400.08,190.09c130.59,0,236.37,101.06,245.75,228.15.44-6.03.75-12.11.75-18.24,0-135.57-109.69-246.5-246.5-246.5s-246.5,110.92-246.5,246.5c0,6.14.3,12.25.76,18.3,9.45-127.12,116.34-228.2,245.74-228.2Z"/>
  <path class="cls-2" d="M477.8,633.79c14.4-33.16,32.49-82.74,35.66-87.53,3.72-7.39,2.47-17.25-6.14-20.95-64.1-39.44-145.44-48.07-239.1-27.11-7.39,2.46-13.56,9.86-11.09,18.49,1.24,3.73,6.47,48.79,12.45,92.07,37.91,23.86,82.66,37.73,130.52,37.73,27.14,0,53.24-4.51,77.72-12.71h0Z"/>
  <rect class="cls-4" x=".08" width="156" height="800"/>
  <rect class="cls-4" x="245.29" y="-245.29" width="156" height="646.58" transform="translate(245.29 401.29) rotate(-90)"/>
  <rect class="cls-4" x="245.29" y="398.53" width="156" height="646.58" transform="translate(-398.53 1045.11) rotate(-90)"/>
</svg>